<?xml version="1.0" encoding="utf-8"?>
<!-- Generator: Adobe Illustrator 25.4.1, SVG Export Plug-In . SVG Version: 6.00 Build 0)  -->
<svg version="1.1" id="Capa_1" xmlns="http://www.w3.org/2000/svg" xmlns:xlink="http://www.w3.org/1999/xlink" x="0px" y="0px"
	 viewBox="0 0 640.5 508.6" style="enable-background:new 0 0 640.5 508.6;" xml:space="preserve">
<style type="text/css">
	.prueba{fill:#B566A6;}
	.st0{fill:#119B49;}
	.st1{fill:#EBFF00;}
	.st2{fill:#F3192B;}
	.st3{fill:#B566A6;}
	.st4{opacity:0.3;fill:#119B49;enable-background:new    ;}
	.st5{opacity:0.3;fill:#4D4D4F;enable-background:new    ;}
	.st6{opacity:0.3;fill:#1999CE;enable-background:new    ;}
	.st7{fill:#F89938;}
	.st8{fill:#6FBE44;}
	.st9{fill:none;stroke:#FFFFFF;}
	.st10{stroke:#231F20;stroke-width:0.2;}
	.st11{fill:#FFFFFF;stroke:#231F20;stroke-width:0.2;}
	.st12{clip-path:url(#SVGID_00000088117968808976845920000011362272104105883789_);}
	.st13{fill-rule:evenodd;clip-rule:evenodd;fill:#FFFFFF;}
	.st14{fill-rule:evenodd;clip-rule:evenodd;fill:#F2BA27;}
	.st15{fill:#FFFFFF;}
	.st16{fill-rule:evenodd;clip-rule:evenodd;}
	.st17{fill:none;}
	.st18{font-family:'Roboto-Regular';}
	.st19{font-size:14px;}
</style>
<g id="Layer_2">
	<path id="idsvg1" class="st0" d="M138.1,64.7l6.9-6.2l10.8,13c0,0-2.4,1.5-3.8,2.6c-0.9,0.7-1.6,1.5-2.2,2.4L138.1,64.7z"/>
	<path id="idsvg2" class="st0" d="M147.7,56.5c6.8-6.2,15.1-10.6,24-12.9c9-2.3,18.3-3.4,27.6-3.4l-0.4,31.2h6.4l0.2,27.1
		c0,0-7-0.3-11.8,0.9c-4.8,1.2-11.3,5-11.3,5L162.5,85l4.4-3.6L147.7,56.5z"/>
	<polygon id="idsvg3" class="st0" points="201.8,40 211.1,40 211.3,56.5 201.7,56.1 	"/>
	<polygon id="idsvg4" class="st0" points="214.7,40.3 214.5,71.2 208.2,71.4 208.5,98.4 252.8,98 252.5,71.6 245.6,71.4 245.8,40.5 
			"/>
	<polygon id="idsvg11" class="st1" points="416.3,39.5 416.3,71.2 409.6,71.2 409.6,98.8 454.2,98.8 454.2,71.5 448,71.5 448,39.4 	
		"/>
	<rect id="idsvg12" x="450.7" y="39.5" class="st1" width="9.1" height="16.6"/>
	<path id="idsvg13" class="st1" d="M456.7,98.6V71.1c0,0,6.3,0.5,6.3,0.1s-0.3-30.8,0-31.4s12.4-1.9,29.5,4.8S514.3,56,514.3,56
		l-18.8,25.5l4.4,3.9l-19.3,18.8C473.5,99.6,465.1,97.6,456.7,98.6z"/>
	<path id="idsvg22" class="st1" d="M516.5,58.8c0.3-0.4,7.2,7.2,7.2,7.2l-10.8,10l-5.8-4.9L516.5,58.8z"/>
	<polygon id="idsvg5" class="st2" points="249.5,39.8 249.9,56.5 258.5,56.6 258.3,40 	"/>
	<polygon id="idsvg6" class="st2" points="261.6,39.5 297.5,39.5 297.5,71.1 303.8,71.1 303.8,98.6 255.4,98.6 255.4,71.5 
		261.2,71.5 	"/>
	<rect id="idsvg7" x="301.2" y="39.8" class="st2" width="8.2" height="16.6"/>
	<polygon id="area1" class="st2" points="312.8,39.8 348.7,39.8 348.7,71.3 355,71.3 355,98.9 306.6,98.9 306.6,71.7 312.4,71.7 	
		"/>
	<rect id="idsvg8" x="352.5" y="40" class="st2" width="8.2" height="16.6"/>
	<polygon id="idsvg9" class="st2" points="364.6,39.7 400.5,39.7 400.5,71.2 406.8,71.2 406.8,98.8 358.4,98.8 358.4,71.6 
		364.2,71.6 	"/>
	<rect id="idsvg10" x="404.2" y="39.9" class="st2" width="8.2" height="16.6"/>
	<polygon id="idsvg17" class="st2" points="251.6,0.5 251.6,26.8 260.4,26.8 260.4,35.5 299.8,35.6 299.8,0.5 	"/>
	<polygon id="idsvg18" class="st2" points="303,0.1 303,26.4 310.5,26.4 310.5,36 351.2,36 351.2,26.4 358.8,26.4 358.8,0 	"/>
	<polygon id="idsvg19" class="st2" points="362,0.1 362,35.5 402.9,35.5 402.9,26.4 410.8,26.4 410.8,0 	"/>
	<path id="idsvg14" class="st1" d="M513.1,10.4l-9.4,24.5l5.8,3.2l-4,8.1c0,0,7.2,4.1,10.9,6.8s8.4,6.8,8.4,6.8l24.7-25.4
		c0,0-9.4-9.4-15.8-13.9C527.3,16,513.1,10.4,513.1,10.4z"/>
	<path id="idsvg15" class="st0" d="M112.2,34.8c0,0,9.6-8.9,16.5-13.6c6.9-4.7,20.4-11,20.4-11l9.8,24.6l-6,3.4l3.4,7.7
		c-3.8,2-7.5,4.2-11,6.7c-4.5,3.3-8.8,6.7-8.8,6.7L112.2,34.8z"/>
	<path class="st0" d="M152.2,9.1c0,0,15.3-5.5,25.1-7S202,0.4,202,0.4L200.8,36c-6-0.4-12-0.1-17.9,0.9c-6.2,0.8-12.3,2.3-18.2,4.5
		L152.2,9.1z"/>
	<polygon id="idsvg16" class="st0" points="203.7,0.5 203.7,26.8 212.5,26.8 212.5,35.5 248,35.5 248,0.5 	"/>
	<polygon id="idsvg20" class="st1" points="414,0.3 414,35.5 449.8,35.5 449.8,26.7 458.3,26.7 458.3,0 	"/>
	<path id="idsvg21" class="st1" d="M460.7,0.3c9.3-0.4,18.7,0.3,27.9,2.1c13.9,2.9,22.3,7,22.3,7l-14.2,32.3
		c-5.9-2.3-12-3.9-18.3-4.9c-5.8-0.9-11.7-1.1-17.5-0.6L460.7,0.3z"/>
	<path class="prueba" d="M529.4,64.5l14.4,19.2l8.1-3.6l2.8,6.1l24.1-10.3c-2.5-6.7-5.6-13.1-9.4-19.2c-5.7-8.8-14.8-17.7-14.8-17.7
		L529.4,64.5z"/>
	<polygon class="st3" points="518.7,82.5 512.9,76 523.7,66 530.5,73.6 	"/>
	<path class="st3" d="M485.2,108.3c0.3-0.5,19.4-18.4,19.4-18.4s3.5,4.1,3.6,3.7s25.2-18.8,25.2-18.8s9,11.5,12.6,24.3
		s3.6,27.3,3.6,27.3h-31.4v6.1h-27.7c0,0,1.2-8.1-0.3-13.9C489.3,114.9,487.6,111.3,485.2,108.3z"/>
	<path class="st3" d="M547.5,92.6l33-13.3c0,0,7.5,17,8,25.8s0.9,23.4,0.9,23.4h-35.8c0.4-6.4,0.2-12.8-0.8-19.2
		C551.8,103.5,550,97.9,547.5,92.6z"/>
	<polygon class="st3" points="563,131.2 589.1,131.2 589.1,178.1 553.8,178.1 553.8,139.2 562.7,139.2 	"/>
	<path class="st3" d="M533.1,129.7c0,0.4,16.7,0,16.7,0v9.3h-17L533.1,129.7z"/>
	<polygon class="st3" points="490.4,135.4 517.6,135.4 517.6,141.5 549.8,141.5 549.8,176.8 518.3,176.8 518.3,182.7 490.2,182.8 	
		"/>
	<polygon class="st3" points="533.1,179.3 550.5,179.3 550.5,188.9 533.2,188.9 	"/>
	<polygon class="st3" points="553.6,189.4 563.2,189.4 563.2,181.2 589.1,181.2 589.1,241.5 563.1,241.5 563.1,233.7 553.7,233.7 	
		"/>
	<polygon class="st3" points="490.4,185.5 517.4,185.5 517.4,191.3 550.1,191.3 550.1,231.6 518.2,231.6 518.2,237.8 490.6,237.8 	
		"/>
	<polygon class="st3" points="533.2,234.4 549.8,234.4 549.8,243.9 533.4,243.9 	"/>
	<polygon class="st3" points="490.5,240.4 517.9,240.4 517.9,246.4 550,246.4 550,281.1 517.9,281.1 517.9,287.4 490.4,287.4 	"/>
	<polygon class="st3" points="553.7,244.4 589,244.4 589,291.7 563.2,291.7 563.2,283.8 553.4,283.8 	"/>
	<polygon class="st3" points="532.6,283.9 550.2,283.9 550.2,294.2 532.7,294.2 	"/>
	<path class="st3" d="M490.4,290.6h27.3v5.9h32.7c0,0-0.4,16.6-4.6,28.5s-12.7,22.8-12.7,22.8l-24.6-18.3l-3.2,3.6l-8.4-8.2
		l8.1-13.6l-14.8-5.4L490.4,290.6z"/>
	<path class="st3" d="M553.7,294.5h35.8c0,8.7-0.8,17.4-2.2,26c-1.5,8.1-3.9,15.9-7.3,23.4l-33-14C547,329.9,555,310.4,553.7,294.5z
		"/>
	<path class="st3" d="M554.5,337.1l-2.8,5.8l-7.9-3.7l-14.4,19.6l25.5,25.2c0,0,10.3-10.2,13.4-15.6c3.1-5.4,10.3-21.9,10.3-21.9
		L554.5,337.1z"/>
	<polygon class="st3" points="517.6,339.8 531.7,350.8 525,358.2 512.1,345.4 	"/>
	<path class="st4" d="M181.7,318.4c0,0,8.4,5.9,13,5.8s15.1,0,15.1,0V352c0,0-14.3,1.2-27.4-2.8s-20.1-11.3-20.1-11.3L181.7,318.4z"
		/>
	<rect x="212.9" y="323.8" class="st4" width="22.9" height="28.3"/>
	<rect x="238.4" y="323.5" class="st4" width="22.9" height="28.3"/>
	<rect x="264" y="323.7" class="st4" width="34.4" height="28.3"/>
	<rect x="301" y="323.7" class="st4" width="15.2" height="27.2"/>
	<rect x="300.8" y="351.6" class="st4" width="15.4" height="13.8"/>
	<rect x="319.2" y="351.4" class="st4" width="23.3" height="8.2"/>
	<rect x="345.5" y="351.5" class="st4" width="15.6" height="13.6"/>
	<rect x="346.7" y="324.1" class="st4" width="14.2" height="26.7"/>
	<path class="st4" d="M319.6,324.6h4.6v6.8h14v-7h4.5V360c0,0.2-23.4,0-23.4,0L319.6,324.6z"/>
	<rect x="363.3" y="323.7" class="st4" width="35.1" height="28.3"/>
	<rect x="400.6" y="323.7" class="st4" width="23.8" height="28.5"/>
	<rect x="425.9" y="323.7" class="st4" width="23" height="28.4"/>
	<path class="st4" d="M452.2,351.5v-27.4c0,0,11.3,1.2,16.3-0.2s12.1-5.2,12.1-5.2l19.4,19.2c0,0-11.9,10.2-23,12.4
		S452.2,351.5,452.2,351.5z"/>
	<path class="st5" d="M352.1,367.1h51.7v-14h18V367h8.4v-13.9h17.6V367h8.1v-13.9c0,0,11.3,0.8,18.2-0.5c6.6-1.4,12.9-3.7,18.9-6.7
		c2.1-1.3,8.6-6.4,8.6-6.4l8.9,10.8l2.6-1.8l8.7,8.2c0,0-8.6,8.8-19.2,13.9s-17.8,8.1-30.1,8.3s-120.4,0-120.4,0L352.1,367.1
		L352.1,367.1z"/>
	<path class="st5" d="M160.9,339.8c0,0,11.5,9.3,20.7,11.5s24.6,2.7,24.6,2.7l0.1,13.1l8.4-0.1v-13.6h17.4v13.5h8.2v-13.5h17.9v13.8
		h51.9v12H189.6c-9.5-0.4-18.8-2.9-27.3-7.2c-14.4-7.4-21.6-16-21.6-16l9.7-9.5l1.4,1.4L160.9,339.8z"/>
	<path class="st6" d="M505,377.4l10.7-7l9.3-7.1l25.5,24.8c0,0-9.9,9.9-18.9,14.8s-18.3,9.5-18.3,9.5l-9.9-24.3l6.4-3.4L505,377.4z"
		/>
	<path class="st6" d="M461.1,386.7c0,0,12.6,0,18.8-1.1s17-5,17-5l14,33.2c-7.5,3.4-15.5,5.7-23.7,6.9c-8.7,1-17.4,1.5-26.2,1.4
		L461.1,386.7z"/>
	<polygon class="st6" points="405.4,396.5 413.9,396.5 413.9,386.8 449.6,386.8 449.6,396.7 457.5,396.7 457.5,422.9 405.6,422.9 	
		"/>
	<rect x="360.5" y="387" class="st6" width="34.8" height="35.5"/>
	<rect x="313.4" y="387.2" class="st6" width="34.8" height="35.5"/>
	<rect x="300.3" y="397.1" class="st6" width="10.6" height="26"/>
	<polygon class="st6" points="251.8,396.5 259.4,396.5 259.4,387.1 297.4,387.1 297.4,422.8 251.7,422.8 	"/>
	<polygon class="st6" points="204.3,396.4 212.4,396.4 212.4,387.2 248.4,387.2 248.4,423 204.5,423 	"/>
	<path class="st6" d="M165.7,380.6c5.9,2.3,12,4.1,18.3,5.2c5.6,0.9,11.2,1.2,16.9,1l0.1,35.9c0,0-9.7,1.4-26.2-2.1s-23-7.1-23-7.1
		L165.7,380.6z"/>
	<path class="st6" d="M137.8,363.2c2.9,2.8,6,5.3,9.3,7.5c4.9,3.2,10.1,5.9,10.1,5.9l-4.8,8.8l6.9,3l-10.4,23.7c0,0-6.4-1.6-20-10.1
		s-16.6-13.7-16.6-13.7L137.8,363.2z"/>
	<polygon class="st7" points="73.2,135.4 99,135.4 99,143.3 108.3,143.3 108.3,178 73.2,178 	"/>
	<rect x="112.4" y="132.4" class="st7" width="16.9" height="6"/>
	<polygon class="st7" points="112.7,141.6 144.4,141.6 144.4,135.4 171.6,135.4 171.6,182 144.3,182 144.3,176 112.6,176 	"/>
	<polygon class="st7" points="144.3,191.2 144.3,185.3 171.7,185.3 171.7,237.5 144.5,237.5 144.5,231.4 112.5,231.4 112.5,191.7 	
		"/>
	<rect x="111.8" y="178.5" class="st7" width="17.6" height="10.6"/>
	<rect x="111.8" y="234.1" class="st7" width="17.5" height="9.9"/>
	<rect x="111.7" y="283.7" class="st7" width="17.6" height="10.6"/>
	<path class="st7" d="M112.2,246.7c0,0,32,0.3,32,0v-6.2h27.4v47.4h-27.3v-6.7h-31.7L112.2,246.7z"/>
	<path class="st7" d="M144.1,290.5h27.6c0,0-1.2,9.9,0.4,14.1c1.4,3.3,3.1,6.4,5.1,9.3l-20,19.7l-6.5-9.3l-26.9,15
		c0,0-7-10.2-8.8-19.9c-1.3-7.5-2.2-15-2.7-22.6l31.9,0.3L144.1,290.5z"/>
	<polygon class="st7" points="124.9,341.6 125.7,343.1 128.5,342.1 134.4,349.5 139.8,355.2 150,345.6 145.3,339.9 154.5,332.4 
		150,326.8 	"/>
	<path class="st7" d="M119.2,339.4l5.9,9.8l7.4,9.2l-25.2,25.4c-4.7-4.8-8.9-10-12.7-15.5c-5.9-8.7-11.2-21.4-11.2-21.4l23.7-9.8
		l3,6.1L119.2,339.4z"/>
	<path class="st7" d="M81.6,343.8c0.1,0.2,33-13.6,33-13.6s-4.2-9.4-5.2-17.8s-1.5-17.6-1.5-17.6H73.3
		C73.3,294.8,73,330.6,81.6,343.8z"/>
	<polygon class="st7" points="73.1,244.6 108.6,244.6 108.6,283 99.1,283 99.1,291 72.9,291 	"/>
	<polygon class="st7" points="73.2,181.5 99.2,181.5 99.2,189.1 108.7,189.1 108.7,233.4 99.4,233.4 99.4,240.9 72.9,240.9 	"/>
	<polygon class="st7" points="73.2,135.4 99,135.4 99,143.3 108.3,143.3 108.3,178 73.2,178 	"/>
	<path class="st7" d="M134.9,67.5c-0.3,0.3-6.6,9-9.4,13.4s-6.4,13.6-6.4,13.6l16.7,6.3l-0.9,2.3l-17.4-5.7
		c-1.7,4.5-3.1,9.1-4.2,13.8c-1,5.2-0.3,17-0.3,17h58.2c0,0,0-6.6,1.4-10.2s4.1-8.8,4.1-8.8L134.9,67.5z"/>
	<path class="st7" d="M83.6,75.2c2.6-6,5.7-11.7,9.4-17.1c4.9-6.8,14.3-18.7,14.3-18.7l25.1,25.1c0,0-5.2,6.2-7.3,9.4
		c-2.1,3.2-6.2,9.5-6.2,9.5l-8.4-3.4l-3.6,5.7L83.6,75.2z"/>
	<path class="st7" d="M82.2,78.9l32.4,13.5c-1.6,4.6-3,9.3-4.1,14c-0.9,4.6-1.5,9.2-1.9,13.8h-9.1v7.7H72.9c0,0,0-14.9,2.4-25.6
		C77.2,94.4,79.5,86.6,82.2,78.9z"/>
</g>
<g id="Layer_3">
	<rect x="196.1" y="124.1" class="st8" width="268.9" height="173.7"/>
	<polyline class="st9" points="201.6,159.7 248.7,159.7 248.7,265.3 202.5,265.3 	"/>
	<polyline class="st9" points="202.5,186.6 218.5,186.6 218.5,237.7 203,237.7 	"/>
	<path class="st9" d="M250.1,188.8c0,0,11.1,6,11.1,22s-12.5,24.1-12.5,24.1"/>
	<line class="st9" x1="330.1" y1="129" x2="330.1" y2="292.2"/>
	<polyline class="st9" points="460.2,159.7 413,159.7 413,265.3 459.3,265.3 	"/>
	<polyline class="st9" points="459.3,186.6 443.3,186.6 443.3,237.7 458.8,237.7 	"/>
	<path class="st9" d="M411.7,188.8c0,0-11.1,6-11.1,22s12.5,24.1,12.5,24.1"/>
	<rect x="201.3" y="129" class="st9" width="258.7" height="163.3"/>
</g>
<g id="Layer_5">
	<ellipse class="st10" cx="331.6" cy="208" rx="18.5" ry="30.6"/>
	<ellipse class="st11" cx="331.6" cy="207.7" rx="17.6" ry="27.9"/>
	<g>
		<g>
			<defs>
				<ellipse id="SVGID_1_" cx="331.6" cy="206.7" rx="16.5" ry="26.1"/>
			</defs>
			<clipPath id="SVGID_00000150807625581176223590000015001226207980174504_">
				<use xlink:href="#SVGID_1_"  style="overflow:visible;"/>
			</clipPath>
			<g style="clip-path:url(#SVGID_00000150807625581176223590000015001226207980174504_);">
				<rect x="328.7" y="176.4" width="6.3" height="62.7"/>
				<rect x="339.7" y="176.4" width="6.3" height="62.7"/>
				<rect x="317.3" y="176.4" width="6.3" height="62.7"/>
			</g>
		</g>
	</g>
	<path class="st13" d="M346.2,208v-14.5c-13.6-5.9-28.9-0.2-28.9-0.2l-0.4,14.7c0,0,13.9-13.8,29.4,0"/>
	<path class="st14" d="M314.9,203.7c10.6-5.1,22.9-5,33.4,0.1l0.1,4c-18.2-14.7-33.7-0.4-33.7-0.4L314.9,203.7z"/>
	<ellipse class="st15" cx="331.6" cy="220.9" rx="6.9" ry="8.4"/>
	<path class="st16" d="M334.8,216.4c-1,0.9-1.3-0.3-1.3-0.6c0.1-0.1,0.2-0.2,0.2-0.4c0-0.3-0.3-0.6-0.6-0.6s-0.6,0.3-0.6,0.6l0,0
		c0,0.1,0,0.2,0.1,0.3c-1,1.7-1.8,0.3-2-0.1c0-0.1,0.1-0.2,0.1-0.3c0-0.3-0.3-0.6-0.6-0.6s-0.6,0.3-0.6,0.6c0,0.2,0.1,0.3,0.2,0.5
		c-0.1,0.3-0.3,1.4-1.3,0.6c-1.2-1-1,0-0.7,0.5s0.6,1,0.9,1.5h0.1l0.1-0.1c2-0.6,4.1-0.6,6,0.1l0.9-1.5
		C335.8,216.4,336,215.3,334.8,216.4z"/>
	<ellipse class="st15" cx="331.6" cy="229.7" rx="6.1" ry="3.8"/>
	<path class="st16" d="M331.6,232.1c-5.3-4.2-5-7.3-5-7.3v-3.5c0-1.1,1.3-1.3,1.3-1.3h7.4c0,0,1.3,0.1,1.3,1.3v3.5
		C336.6,224.8,336.9,227.9,331.6,232.1"/>
	<path class="st13" d="M334.6,222.9c-0.2-0.3-0.6-0.4-0.9-0.3c-0.6,0.3-0.3,1.2-0.3,1.2l0,0c0.2,0.4,0.3,0.7,0.4,1.1
		c0.3,0.8-0.2,0.7-0.2,0.7c-0.3,0-0.6-0.3-0.7-0.6c-0.1-1-0.3-1.9-0.6-2.8c-0.4-0.5-1-0.9-1.7-1c-0.5,0-1-0.2-1.4-0.4h-0.3
		c0,0.3,0.2,0.7,0.4,0.9l0.2,1.3l0.7,0.6l-0.2,0.1c-0.2-0.1-0.5-0.2-0.7-0.2h0.1c-0.2-0.2-0.3-0.2-0.3-0.2s-0.1,0.2-0.2,0.2
		c-0.4,0.1-0.8,0.2-1.2,0.5l0.1,0.3c0.3-0.2,0.6-0.3,1-0.4c-0.2,0.5-0.1,1,0.3,1.3h0.5v-0.4c-0.2-0.2-0.4-0.4-0.4-0.7l0.6,0.2
		l0.7,0.5l0.1,0.6c-0.4,0.5-0.5,1-0.4,1.6c-0.8,0.4-1.1,0.3-1.1,0.3c-0.2,0-0.4,0.2-0.5,0.4l0.1,0.4l0.6-0.1
		c0.1-0.2,0.7-0.3,0.7-0.3l0.9-0.2c0.2-0.2,0.5-0.3,0.8-0.4c0.1,0.4,0.4,0.7,0.7,1c0.2,0.2,0.2,0.6,0,0.8c-0.1,0.4-0.2,0.7-0.1,1.1
		l0.7-0.2l-0.1-0.7c0.1-0.3,0.6-0.5,0.6-0.5l-0.1-0.4c0-0.4,0.2-0.8,0.4-1.2c0.5-0.6,0.4-0.9,0.4-0.9c0.2-0.4,0.2-1,0-1.4
		s-0.3-0.8-0.4-1.2c-0.1-0.3,0-0.6,0.3-0.7l0,0c-0.2,0.6,0.5,0.9,0.5,0.9C334.9,223.6,334.6,222.9,334.6,222.9z"/>
	<path class="st16" d="M317.6,194.9l1.3-0.5v5.5c-0.2,0.8-1,1.4-1.8,1.3v-0.9c0,0,0.5,0,0.5-0.3V194.9z"/>
	<path class="st16" d="M319.7,194.2l1.3-0.4v5c0,0,0,0.3,0.4,0.4s0.4-0.2,0.4-0.4v-5.2l1.3-0.4v5.2c0,0.9-0.8,1.6-1.7,1.6l0,0h-0.1
		c-0.6,0-1.4-0.3-1.4-1S319.7,194.2,319.7,194.2z"/>
	<polygon class="st16" points="323.7,193.1 325,192.8 325.6,197.2 326,192.6 327.4,192.4 326.7,198.7 324.5,199.1 	"/>
	<polygon class="st16" points="328,192.4 330.4,192.3 330.4,193.4 329.3,193.4 329.3,194.8 330.4,194.8 330.4,195.8 329.3,195.8 
		329.3,197.4 330.5,197.4 330.5,198.5 328,198.6 	"/>
	<polygon class="st16" points="331.2,192.3 332.3,192.3 333.4,195.2 333.4,192.3 334.5,192.3 334.5,198.5 333.3,198.5 332.3,195.7 
		332.3,198.5 331.2,198.5 	"/>
	<polygon class="st16" points="335.2,192.4 338.3,192.8 338.3,193.8 337.5,193.8 337.5,198.8 336.1,198.6 336.1,193.5 335.1,193.4 	
		"/>
	<path class="st16" d="M339,192.9l1.3,0.3v4.7c0,0,0,0.9,0.5,0.9c0,0,0.3,0,0.4-0.4v-4.9l1.2,0.2v4.9c0,0.6-0.5,1-1.1,1
		c-1,0.2-2-0.5-2.2-1.6c0-0.2,0-0.3,0-0.5L339,192.9z"/>
	<path class="st16" d="M344.9,196.2l1.2,0.3v-0.9c0,0-0.3-1.4-2.3-1.5c0,0-0.8,0.2-0.8,0.7v1.2c0.1,0.4,0.3,0.7,0.6,1l1.3,1.3
		c0.1,0.2,0.2,0.4,0.2,0.6v0.8c0,0,0,0.2-0.4,0.2c-0.2,0-0.4-0.1-0.4-0.3v-1.1l-1.1-0.4v1.2c0.2,0.9,0.9,1.5,1.8,1.6h0.7
		c0,0,0.5,0,0.5-0.7v-1.6c0,0,0.1-0.1-1.5-1.8c0,0-0.4-0.4-0.4-0.7v-0.8c0,0,0.1-0.3,0.6-0.1C345,195.2,344.9,196.2,344.9,196.2z"/>
</g>
<rect x="99.2" y="454.6" class="st2" width="20" height="20"/>
<rect x="207.2" y="454.6" class="st0" width="20" height="20"/>
<rect x="336.2" y="454.6" class="st1" width="20" height="20"/>
<rect x="456.2" y="454.6" class="st7" width="20" height="20"/>
<rect x="-26.2" y="142.2" class="st17" width="91.4" height="32.4"/>
<text transform="matrix(1 0 0 1 124.29 469.66)" class="st18 st19">Vip No</text>
<text transform="matrix(1 0 0 1 165.88 469.66)" class="st18 st19">r</text>
<text transform="matrix(1 0 0 1 170.96 469.66)" class="st18 st19">te</text>
<rect x="-27.9" y="189.4" class="st17" width="132.4" height="42.4"/>
<text transform="matrix(1 0 0 1 233.19 469.97)" class="st18 st19">Platea No</text>
<text transform="matrix(1 0 0 1 294.07 469.97)" class="st18 st19">r</text>
<text transform="matrix(1 0 0 1 299.15 469.97)" class="st18 st19">te</text>
<rect x="-51" y="279.3" class="st17" width="152.5" height="43.2"/>
<text transform="matrix(1 0 0 1 482.57 470.66)" class="st18 st19">Galeria No</text>
<text transform="matrix(1 0 0 1 547.72 470.66)" class="st18 st19">r</text>
<text transform="matrix(1 0 0 1 552.8 470.66)" class="st18 st19">te</text>
<polygon class="st17" points="-27.8,239 154.2,239 152.4,248.7 -29.6,248.7 "/>
<text transform="matrix(1 0 0 1 362.45 470.47)" class="st18 st19">P</text>
<text transform="matrix(1 0 0 1 371.21 470.47)" class="st18 st19">alco No</text>
<text transform="matrix(1 0 0 1 418.96 470.47)" class="st18 st19">r</text>
<text transform="matrix(1 0 0 1 424.04 470.47)" class="st18 st19">te</text>
<g id="Capa_2_00000021096471289648117880000013971298255617428411_">
	<rect x="99.2" y="488.6" class="st6" width="20" height="20"/>
	<rect x="207.2" y="488.6" class="st4" width="20" height="20"/>
	<rect x="336.2" y="488.6" class="st5" width="20" height="20"/>
	<rect x="456.2" y="488.6" class="st3" width="20" height="20"/>
	<text transform="matrix(1 0 0 1 126.35 502.98)" class="st18 st19">Vip Sur</text>
	<text transform="matrix(1 0 0 1 233.24 503.75)" class="st18 st19">Platea Sur</text>
	<text transform="matrix(1 0 0 1 482.91 504.09)" class="st18 st19">Galeria Sur</text>
	<text transform="matrix(1 0 0 1 363.25 502.74)" class="st18 st19">P</text>
	<text transform="matrix(1 0 0 1 372.01 502.74)" class="st18 st19">alco Sur</text>
</g>
</svg>
