<?xml version="1.0" encoding="utf-8"?>
<!-- Generator: Adobe Illustrator 25.4.1, SVG Export Plug-In . SVG Version: 6.00 Build 0)  -->
<svg version="1.1" id="Capa_1" xmlns="http://www.w3.org/2000/svg" xmlns:xlink="http://www.w3.org/1999/xlink" x="0px" y="0px"
	 viewBox="0 0 538 550" style="enable-background:new 0 0 538 550;" xml:space="preserve">
<style type="text/css">
	.st0{fill:#119B49;}
	.st1{fill:#EBFF00;}
	.st2{fill:#F3192B;}
	.st3{fill:#B566A6;}
	.st4{opacity:0.3;fill:#119B49;enable-background:new    ;}
	.st5{opacity:0.3;fill:#4D4D4F;enable-background:new    ;}
	.st6{opacity:0.3;fill:#1999CE;enable-background:new    ;}
	.st7{fill:#F89938;}
	.st8{fill:#6FBE44;}
	.st9{fill:none;stroke:#FFFFFF;}
	.st10{stroke:#231F20;stroke-width:0.2;}
	.st11{fill:#FFFFFF;stroke:#231F20;stroke-width:0.2;}
	.st12{clip-path:url(#SVGID_00000107577778382623846540000008281297159158322611_);}
	.st13{fill-rule:evenodd;clip-rule:evenodd;fill:#FFFFFF;}
	.st14{fill-rule:evenodd;clip-rule:evenodd;fill:#F2BA27;}
	.st15{fill:#FFFFFF;}
	.st16{fill-rule:evenodd;clip-rule:evenodd;}
	.st17{fill:none;}
	.st18{font-family:'Roboto-Regular';}
	.st19{font-size:14px;}
</style>
<g id="Layer_2">
	<path id="idsvg1" class="st0" d="M77.8,85.4l6.9-6.2l10.8,13c0,0-2.4,1.5-3.8,2.6c-0.9,0.7-1.6,1.5-2.2,2.4L77.8,85.4z"/>
	<path id="idsvg2" class="st0" d="M87.4,77.2c6.8-6.2,15.1-10.6,24-12.9c9-2.3,18.3-3.4,27.6-3.4l-0.4,31.2h6.4l0.2,27.1
		c0,0-7-0.3-11.8,0.9s-11.3,5-11.3,5l-19.9-19.4l4.4-3.6L87.4,77.2z"/>
	<polygon id="idsvg3" class="st0" points="141.6,60.7 150.9,60.7 151,77.2 141.4,76.8 	"/>
	<polygon id="idsvg4" class="st0" points="154.5,61 154.2,91.9 148,92.1 148.2,119.1 192.5,118.7 192.2,92.3 185.4,92.1 185.5,61.2 
			"/>
	<polygon id="idsvg11" class="st1" points="356,60.2 356,91.9 349.4,91.9 349.4,119.5 394,119.5 394,92.2 387.8,92.2 387.8,60.1 	
		"/>
	<rect id="idsvg12" x="390.5" y="60.2" class="st1" width="9.1" height="16.6"/>
	<path id="idsvg13" class="st1" d="M396.5,119.3V91.8c0,0,6.3,0.5,6.3,0.1s-0.3-30.8,0-31.4s12.4-1.9,29.5,4.8S454,76.7,454,76.7
		l-18.8,25.5l4.4,3.9l-19.3,18.8C413.3,120.3,404.8,118.3,396.5,119.3z"/>
	<path id="idsvg22" class="st1" d="M456.2,79.5c0.3-0.4,7.2,7.2,7.2,7.2l-10.8,10l-5.8-4.9L456.2,79.5z"/>
	<polygon id="idsvg5" class="st2" points="189.2,60.5 189.6,77.2 198.2,77.3 198,60.7 	"/>
	<polygon id="idsvg6" class="st2" points="201.4,60.2 237.2,60.2 237.2,91.8 243.5,91.8 243.5,119.3 195.1,119.3 195.1,92.2 
		201,92.2 	"/>
	<rect id="idsvg7" x="241" y="60.5" class="st2" width="8.2" height="16.6"/>
	<polygon id="area1" class="st2" points="252.5,60.5 288.5,60.5 288.5,92 294.8,92 294.8,119.6 246.4,119.6 246.4,92.4 252.1,92.4 	
		"/>
	<rect id="idsvg8" x="292.2" y="60.7" class="st2" width="8.2" height="16.6"/>
	<polygon id="idsvg9" class="st2" points="304.4,60.4 340.2,60.4 340.2,91.9 346.5,91.9 346.5,119.5 298.1,119.5 298.1,92.3 
		304,92.3 	"/>
	<rect id="idsvg10" x="344" y="60.6" class="st2" width="8.2" height="16.6"/>
	<polygon id="idsvg17" class="st2" points="191.4,21.2 191.4,47.5 200.1,47.5 200.1,56.2 239.5,56.3 239.5,21.2 	"/>
	<polygon id="idsvg18" class="st2" points="242.8,20.8 242.8,47.1 250.2,47.1 250.2,56.7 291,56.7 291,47.1 298.5,47.1 298.5,20.7 	
		"/>
	<polygon id="idsvg19" class="st2" points="301.8,20.8 301.8,56.2 342.6,56.2 342.6,47.1 350.5,47.1 350.5,20.7 	"/>
	<path id="idsvg14" class="st1" d="M452.9,31.1l-9.4,24.5l5.8,3.2l-4,8.1c0,0,7.2,4.1,10.9,6.8s8.4,6.8,8.4,6.8l24.7-25.4
		c0,0-9.4-9.4-15.8-13.9S452.9,31.1,452.9,31.1z"/>
	<path id="idsvg15" class="st0" d="M52,55.5c0,0,9.6-8.9,16.5-13.6s20.4-11,20.4-11l9.8,24.6l-6,3.4l3.4,7.7c-3.8,2-7.5,4.2-11,6.7
		c-4.5,3.3-8.8,6.7-8.8,6.7L52,55.5z"/>
	<path class="st0" d="M91.9,29.8c0,0,15.3-5.5,25.1-7s24.7-1.7,24.7-1.7l-1.2,35.6c-6-0.4-12-0.1-17.9,0.9
		c-6.2,0.8-12.3,2.3-18.2,4.5L91.9,29.8z"/>
	<polygon id="idsvg16" class="st0" points="143.4,21.2 143.4,47.5 152.2,47.5 152.2,56.2 187.8,56.2 187.8,21.2 	"/>
	<polygon id="idsvg20" class="st1" points="353.8,21 353.8,56.2 389.5,56.2 389.5,47.4 398,47.4 398,20.7 	"/>
	<path id="idsvg21" class="st1" d="M400.5,21c9.3-0.4,18.7,0.3,27.9,2.1c13.9,2.9,22.3,7,22.3,7l-14.2,32.3
		c-5.9-2.3-12-3.9-18.3-4.9c-5.8-0.9-11.7-1.1-17.5-0.6L400.5,21z"/>
	<path class="st3" d="M469.1,85.2l14.4,19.2l8.1-3.6l2.8,6.1l24.1-10.3c-2.5-6.7-5.6-13.1-9.4-19.2c-5.7-8.8-14.8-17.7-14.8-17.7
		L469.1,85.2z"/>
	<polygon class="st3" points="458.5,103.2 452.7,96.7 463.5,86.7 470.2,94.3 	"/>
	<path class="st3" d="M425,129c0.3-0.5,19.4-18.4,19.4-18.4s3.5,4.1,3.6,3.7s25.2-18.8,25.2-18.8s9,11.5,12.6,24.3
		s3.6,27.3,3.6,27.3H458v6.1h-27.7c0,0,1.2-8.1-0.3-13.9C429,135.6,427.3,132,425,129z"/>
	<path class="st3" d="M487.2,113.3l33-13.3c0,0,7.5,17,8,25.8s0.9,23.4,0.9,23.4h-35.8c0.4-6.4,0.2-12.8-0.8-19.2
		C491.6,124.2,489.8,118.6,487.2,113.3z"/>
	<polygon class="st3" points="502.8,151.9 528.8,151.9 528.8,198.8 493.5,198.8 493.5,159.9 502.5,159.9 	"/>
	<path class="st3" d="M472.9,150.4c0,0.4,16.7,0,16.7,0v9.3h-17L472.9,150.4z"/>
	<polygon class="st3" points="430.2,156.1 457.3,156.1 457.3,162.2 489.5,162.2 489.5,197.5 458,197.5 458,203.4 430,203.5 	"/>
	<polygon class="st3" points="472.8,200 490.2,200 490.2,209.6 473,209.6 	"/>
	<polygon class="st3" points="493.3,210.1 503,210.1 503,201.9 528.8,201.9 528.8,262.2 502.8,262.2 502.8,254.4 493.5,254.4 	"/>
	<polygon class="st3" points="430.2,206.2 457.2,206.2 457.2,212 489.8,212 489.8,252.3 458,252.3 458,258.5 430.3,258.5 	"/>
	<polygon class="st3" points="473,255.1 489.5,255.1 489.5,264.6 473.2,264.6 	"/>
	<polygon class="st3" points="430.2,261.1 457.7,261.1 457.7,267.1 489.8,267.1 489.8,301.8 457.7,301.8 457.7,308.1 430.2,308.1 	
		"/>
	<polygon class="st3" points="493.5,265.1 528.8,265.1 528.8,312.4 503,312.4 503,304.5 493.2,304.5 	"/>
	<polygon class="st3" points="472.3,304.6 490,304.6 490,314.9 472.5,314.9 	"/>
	<path class="st3" d="M430.1,311.3h27.3v5.9h32.7c0,0-0.4,16.6-4.6,28.5s-12.7,22.8-12.7,22.8l-24.6-18.3l-3.2,3.6l-8.4-8.2
		l8.1-13.6l-14.8-5.4L430.1,311.3z"/>
	<path class="st3" d="M493.5,315.2h35.8c0,8.7-0.8,17.4-2.2,26c-1.5,8.1-3.9,15.9-7.3,23.4l-33-14
		C486.8,350.6,494.8,331.1,493.5,315.2z"/>
	<path class="st3" d="M494.2,357.8l-2.8,5.8l-7.9-3.7l-14.4,19.6l25.5,25.2c0,0,10.3-10.2,13.4-15.6s10.3-21.9,10.3-21.9
		L494.2,357.8z"/>
	<polygon class="st3" points="457.3,360.5 471.5,371.5 464.8,378.9 451.8,366.1 	"/>
	<path class="st4" d="M121.4,339.1c0,0,8.4,5.9,13,5.8s15.1,0,15.1,0v27.8c0,0-14.3,1.2-27.4-2.8s-20.1-11.3-20.1-11.3L121.4,339.1z
		"/>
	<rect x="152.6" y="344.5" class="st4" width="22.9" height="28.3"/>
	<rect x="178.1" y="344.2" class="st4" width="22.9" height="28.3"/>
	<rect x="203.8" y="344.4" class="st4" width="34.4" height="28.3"/>
	<rect x="240.8" y="344.4" class="st4" width="15.2" height="27.2"/>
	<rect x="240.5" y="372.3" class="st4" width="15.4" height="13.8"/>
	<rect x="259" y="372.1" class="st4" width="23.3" height="8.2"/>
	<rect x="285.2" y="372.2" class="st4" width="15.6" height="13.6"/>
	<rect x="286.5" y="344.8" class="st4" width="14.2" height="26.7"/>
	<path class="st4" d="M259.4,345.3h4.6v6.8h14v-7h4.5v35.6c0,0.2-23.4,0-23.4,0L259.4,345.3z"/>
	<rect x="303" y="344.4" class="st4" width="35.1" height="28.3"/>
	<rect x="340.4" y="344.4" class="st4" width="23.8" height="28.5"/>
	<rect x="365.6" y="344.4" class="st4" width="23" height="28.4"/>
	<path class="st4" d="M392,372.2v-27.4c0,0,11.3,1.2,16.3-0.2s12.1-5.2,12.1-5.2l19.4,19.2c0,0-11.9,10.2-23,12.4
		S392,372.2,392,372.2z"/>
	<path class="st5" d="M291.9,387.8h51.7v-14h18v13.9h8.4v-13.9h17.6v13.9h8.1v-13.9c0,0,11.3,0.8,18.2-0.5
		c6.6-1.4,12.9-3.7,18.9-6.7c2.1-1.3,8.6-6.4,8.6-6.4l8.9,10.8l2.6-1.8l8.7,8.2c0,0-8.6,8.8-19.2,13.9s-17.8,8.1-30.1,8.3
		s-120.4,0-120.4,0L291.9,387.8L291.9,387.8z"/>
	<path class="st5" d="M100.7,360.5c0,0,11.5,9.3,20.7,11.5s24.6,2.7,24.6,2.7l0.1,13.1l8.4-0.1v-13.6h17.4v13.5h8.2v-13.5h17.9v13.8
		h51.9v12H129.4c-9.5-0.4-18.8-2.9-27.3-7.2c-14.4-7.4-21.6-16-21.6-16l9.7-9.5l1.4,1.4L100.7,360.5z"/>
	<path class="st6" d="M444.8,398.1l10.7-7l9.3-7.1l25.5,24.8c0,0-9.9,9.9-18.9,14.8s-18.3,9.5-18.3,9.5l-9.9-24.3l6.4-3.4
		L444.8,398.1z"/>
	<path class="st6" d="M400.9,407.4c0,0,12.6,0,18.8-1.1s17-5,17-5l14,33.2c-7.5,3.4-15.5,5.7-23.7,6.9c-8.7,1-17.4,1.5-26.2,1.4
		L400.9,407.4z"/>
	<polygon class="st6" points="345.1,417.2 353.6,417.2 353.6,407.5 389.4,407.5 389.4,417.4 397.2,417.4 397.2,443.6 345.4,443.6 	
		"/>
	<rect x="300.2" y="407.7" class="st6" width="34.8" height="35.5"/>
	<rect x="253.1" y="407.9" class="st6" width="34.8" height="35.5"/>
	<rect x="240" y="417.8" class="st6" width="10.6" height="26"/>
	<polygon class="st6" points="191.5,417.2 199.1,417.2 199.1,407.8 237.1,407.8 237.1,443.5 191.5,443.5 	"/>
	<polygon class="st6" points="144.1,417.1 152.1,417.1 152.1,407.9 188.1,407.9 188.1,443.7 144.2,443.7 	"/>
	<path class="st6" d="M105.4,401.3c5.9,2.3,12,4.1,18.3,5.2c5.6,0.9,11.2,1.2,16.9,1l0.1,35.9c0,0-9.7,1.4-26.2-2.1s-23-7.1-23-7.1
		L105.4,401.3z"/>
	<path class="st6" d="M77.6,383.9c2.9,2.8,6,5.3,9.3,7.5c4.9,3.2,10.1,5.9,10.1,5.9l-4.8,8.8l6.9,3l-10.4,23.7c0,0-6.4-1.6-20-10.1
		S52.1,409,52.1,409L77.6,383.9z"/>
	<polygon class="st7" points="12.9,156.1 38.8,156.1 38.8,164 48.1,164 48.1,198.7 12.9,198.7 	"/>
	<rect x="52.1" y="153.1" class="st7" width="16.9" height="6"/>
	<polygon class="st7" points="52.4,162.3 84.1,162.3 84.1,156.1 111.4,156.1 111.4,202.7 84.1,202.7 84.1,196.7 52.4,196.7 	"/>
	<polygon class="st7" points="84.1,211.9 84.1,206 111.4,206 111.4,258.2 84.2,258.2 84.2,252.1 52.2,252.1 52.2,212.4 	"/>
	<rect x="51.6" y="199.2" class="st7" width="17.6" height="10.6"/>
	<rect x="51.6" y="254.8" class="st7" width="17.5" height="9.9"/>
	<rect x="51.4" y="304.4" class="st7" width="17.6" height="10.6"/>
	<path class="st7" d="M52,267.4c0,0,32,0.3,32,0v-6.2h27.4v47.4H84.1v-6.7H52.3L52,267.4z"/>
	<path class="st7" d="M83.8,311.2h27.6c0,0-1.2,9.9,0.4,14.1c1.4,3.3,3.1,6.4,5.1,9.3l-20,19.7l-6.5-9.3l-26.9,15
		c0,0-7-10.2-8.8-19.9c-1.3-7.5-2.2-15-2.7-22.6l31.9,0.3L83.8,311.2z"/>
	<polygon class="st7" points="64.6,362.3 65.4,363.8 68.2,362.8 74.1,370.2 79.6,375.9 89.8,366.3 85.1,360.6 94.2,353.1 
		89.8,347.5 	"/>
	<path class="st7" d="M58.9,360.1l5.9,9.8l7.4,9.2L47,404.5c-4.7-4.8-8.9-10-12.7-15.5c-5.9-8.7-11.2-21.4-11.2-21.4l23.7-9.8l3,6.1
		L58.9,360.1z"/>
	<path class="st7" d="M21.4,364.5c0.1,0.2,33-13.6,33-13.6s-4.2-9.4-5.2-17.8s-1.5-17.6-1.5-17.6H13C13,315.5,12.8,351.3,21.4,364.5
		z"/>
	<polygon class="st7" points="12.8,265.3 48.4,265.3 48.4,303.7 38.9,303.7 38.9,311.7 12.7,311.7 	"/>
	<polygon class="st7" points="12.9,202.2 38.9,202.2 38.9,209.8 48.4,209.8 48.4,254.1 39.1,254.1 39.1,261.6 12.7,261.6 	"/>
	<polygon class="st7" points="12.9,156.1 38.8,156.1 38.8,164 48.1,164 48.1,198.7 12.9,198.7 	"/>
	<path class="st7" d="M74.7,88.2c-0.3,0.3-6.6,9-9.4,13.4s-6.4,13.6-6.4,13.6l16.7,6.3l-0.9,2.3l-17.4-5.7
		c-1.7,4.5-3.1,9.1-4.2,13.8c-1,5.2-0.3,17-0.3,17h58.2c0,0,0-6.6,1.4-10.2s4.1-8.8,4.1-8.8L74.7,88.2z"/>
	<path class="st7" d="M23.4,95.9c2.6-6,5.7-11.7,9.4-17.1C37.7,72,47,60.1,47,60.1l25.1,25.1c0,0-5.2,6.2-7.3,9.4s-6.2,9.5-6.2,9.5
		l-8.4-3.4l-3.6,5.7L23.4,95.9z"/>
	<path class="st7" d="M22,99.6l32.4,13.5c-1.6,4.6-3,9.3-4.1,14c-0.9,4.6-1.5,9.2-1.9,13.8h-9.1v7.7H12.6c0,0,0-14.9,2.4-25.6
		C17,115.1,19.3,107.3,22,99.6z"/>
</g>
<g id="Layer_3">
	<rect x="135.9" y="144.8" class="st8" width="268.9" height="173.7"/>
	<polyline class="st9" points="141.4,180.4 188.5,180.4 188.5,286 142.2,286 	"/>
	<polyline class="st9" points="142.2,207.3 158.2,207.3 158.2,258.4 142.8,258.4 	"/>
	<path class="st9" d="M189.9,209.5c0,0,11.1,6,11.1,22s-12.5,24.1-12.5,24.1"/>
	<line class="st9" x1="269.9" y1="149.7" x2="269.9" y2="312.9"/>
	<polyline class="st9" points="400,180.4 352.8,180.4 352.8,286 399,286 	"/>
	<polyline class="st9" points="399,207.3 383,207.3 383,258.4 398.5,258.4 	"/>
	<path class="st9" d="M351.5,209.5c0,0-11.1,6-11.1,22s12.5,24.1,12.5,24.1"/>
	<rect x="141.1" y="149.7" class="st9" width="258.7" height="163.3"/>
</g>
<g id="Layer_5">
	<ellipse class="st10" cx="271.4" cy="228.7" rx="18.5" ry="30.6"/>
	<ellipse class="st11" cx="271.4" cy="228.4" rx="17.6" ry="27.9"/>
	<g>
		<defs>
			<ellipse id="SVGID_1_" cx="271.4" cy="227.4" rx="16.5" ry="26.1"/>
		</defs>
		<clipPath id="SVGID_00000103250600473256796080000000644938703983553948_">
			<use xlink:href="#SVGID_1_"  style="overflow:visible;"/>
		</clipPath>
		<g style="clip-path:url(#SVGID_00000103250600473256796080000000644938703983553948_);">
			<rect x="268.5" y="197.1" width="6.3" height="62.7"/>
			<rect x="279.5" y="197.1" width="6.3" height="62.7"/>
			<rect x="257" y="197.1" width="6.3" height="62.7"/>
		</g>
	</g>
	<path class="st13" d="M286,228.7v-14.5c-13.6-5.9-28.9-0.2-28.9-0.2l-0.4,14.7c0,0,13.9-13.8,29.4,0"/>
	<path class="st14" d="M254.6,224.4c10.6-5.1,22.9-5,33.4,0.1l0.1,4c-18.2-14.7-33.7-0.4-33.7-0.4L254.6,224.4z"/>
	<ellipse class="st15" cx="271.4" cy="241.6" rx="6.9" ry="8.4"/>
	<path class="st16" d="M274.5,237.1c-1,0.9-1.3-0.3-1.3-0.6c0.1-0.1,0.2-0.2,0.2-0.4c0-0.3-0.3-0.6-0.6-0.6s-0.6,0.3-0.6,0.6l0,0
		c0,0.1,0,0.2,0.1,0.3c-1,1.7-1.8,0.3-2-0.1c0-0.1,0.1-0.2,0.1-0.3c0-0.3-0.3-0.6-0.6-0.6s-0.6,0.3-0.6,0.6c0,0.2,0.1,0.3,0.2,0.5
		c-0.1,0.3-0.3,1.4-1.3,0.6c-1.2-1-1,0-0.7,0.5c0.3,0.5,0.6,1,0.9,1.5h0.1l0.1-0.1c2-0.6,4.1-0.6,6,0.1l0.9-1.5
		C275.5,237.1,275.8,236,274.5,237.1z"/>
	<ellipse class="st15" cx="271.4" cy="250.4" rx="6.1" ry="3.8"/>
	<path class="st16" d="M271.4,252.8c-5.3-4.2-5-7.3-5-7.3V242c0-1.1,1.3-1.3,1.3-1.3h7.4c0,0,1.3,0.1,1.3,1.3v3.5
		C276.3,245.5,276.6,248.6,271.4,252.8"/>
	<path class="st13" d="M274.4,243.6c-0.2-0.3-0.6-0.4-0.9-0.3c-0.6,0.3-0.3,1.2-0.3,1.2l0,0c0.2,0.4,0.3,0.7,0.4,1.1
		c0.3,0.8-0.2,0.7-0.2,0.7c-0.3,0-0.6-0.3-0.7-0.6c-0.1-1-0.3-1.9-0.6-2.8c-0.4-0.5-1-0.9-1.7-1c-0.5,0-1-0.2-1.4-0.4h-0.3
		c0,0.3,0.2,0.7,0.4,0.9l0.2,1.3l0.7,0.6l-0.2,0.1c-0.2-0.1-0.5-0.2-0.7-0.2h0.1c-0.2-0.2-0.3-0.2-0.3-0.2s-0.1,0.2-0.2,0.2
		c-0.4,0.1-0.8,0.2-1.2,0.5l0.1,0.3c0.3-0.2,0.6-0.3,1-0.4c-0.2,0.5-0.1,1,0.3,1.3h0.5v-0.4c-0.2-0.2-0.4-0.4-0.4-0.7l0.6,0.2
		l0.7,0.5l0.1,0.6c-0.4,0.5-0.5,1-0.4,1.6c-0.8,0.4-1.1,0.3-1.1,0.3c-0.2,0-0.4,0.2-0.5,0.4l0.1,0.4l0.6-0.1
		c0.1-0.2,0.7-0.3,0.7-0.3l0.9-0.2c0.2-0.2,0.5-0.3,0.8-0.4c0.1,0.4,0.4,0.7,0.7,1c0.2,0.2,0.2,0.6,0,0.8c-0.1,0.4-0.2,0.7-0.1,1.1
		l0.7-0.2l-0.1-0.7c0.1-0.3,0.6-0.5,0.6-0.5l-0.1-0.4c0-0.4,0.2-0.8,0.4-1.2c0.5-0.6,0.4-0.9,0.4-0.9c0.2-0.4,0.2-1,0-1.4
		c-0.2-0.4-0.3-0.8-0.4-1.2c-0.1-0.3,0-0.6,0.3-0.7c0,0,0,0,0,0c-0.2,0.6,0.5,0.9,0.5,0.9C274.6,244.3,274.4,243.6,274.4,243.6z"/>
	<path class="st16" d="M257.4,215.6l1.3-0.5v5.5c-0.2,0.8-1,1.4-1.8,1.3V221c0,0,0.5,0,0.5-0.3V215.6z"/>
	<path class="st16" d="M259.5,214.9l1.3-0.4v5c0,0,0,0.3,0.4,0.4s0.4-0.2,0.4-0.4v-5.2l1.3-0.4v5.2c0,0.9-0.8,1.6-1.7,1.6
		c-0.1,0-0.1,0-0.2,0c-0.6,0-1.4-0.3-1.4-1S259.5,214.9,259.5,214.9z"/>
	<polygon class="st16" points="263.5,213.8 264.8,213.5 265.4,217.9 265.8,213.3 267.1,213.1 266.5,219.4 264.2,219.8 	"/>
	<polygon class="st16" points="267.8,213.1 270.1,213 270.1,214.1 269,214.1 269,215.5 270.1,215.5 270.1,216.5 269,216.5 
		269,218.1 270.2,218.1 270.2,219.2 267.8,219.3 	"/>
	<polygon class="st16" points="271,213 272,213 273.1,215.9 273.1,213 274.2,213 274.2,219.2 273,219.2 272,216.4 272,219.2 
		271,219.2 	"/>
	<polygon class="st16" points="275,213.1 278,213.5 278,214.5 277.2,214.5 277.2,219.5 275.9,219.3 275.9,214.2 274.9,214.1 	"/>
	<path class="st16" d="M278.8,213.6l1.3,0.3v4.7c0,0,0,0.9,0.5,0.9c0,0,0.3,0,0.4-0.4v-4.9l1.2,0.2v4.9c0,0.6-0.5,1-1.1,1
		c-1,0.2-2-0.5-2.2-1.6c0-0.2,0-0.3,0-0.5L278.8,213.6z"/>
	<path class="st16" d="M284.6,216.9l1.2,0.3v-0.9c0,0-0.3-1.4-2.3-1.5c0,0-0.8,0.2-0.8,0.7v1.2c0.1,0.4,0.3,0.7,0.6,1l1.3,1.3
		c0.1,0.2,0.2,0.4,0.2,0.6v0.8c0,0,0,0.2-0.4,0.2c-0.2,0-0.4-0.1-0.4-0.3c0,0,0-0.1,0-0.1v-1l-1.1-0.4v1.2c0.2,0.9,0.9,1.5,1.8,1.6
		h0.7c0,0,0.5,0,0.5-0.7v-1.6c0,0,0.1-0.1-1.5-1.8c0,0-0.4-0.4-0.4-0.7V216c0,0,0.1-0.3,0.6-0.1
		C284.8,215.9,284.6,216.9,284.6,216.9z"/>
</g>
<rect x="41.9" y="475.3" class="st2" width="20" height="20"/>
<rect x="150" y="475.3" class="st0" width="20" height="20"/>
<rect x="279" y="475.3" class="st1" width="20" height="20"/>
<rect x="399" y="475.3" class="st7" width="20" height="20"/>
<rect x="-86.4" y="162.9" class="st17" width="91.4" height="32.4"/>
<text transform="matrix(1 0 0 1 67.04 490.36)" class="st18 st19">Vip Norte</text>
<rect x="-88.2" y="210.1" class="st17" width="132.4" height="42.4"/>
<text transform="matrix(1 0 0 1 175.94 490.67)" class="st18 st19">Platea Norte</text>
<rect x="-111.2" y="300" class="st17" width="152.5" height="43.2"/>
<text transform="matrix(1 0 0 1 425.32 491.36)" class="st18 st19">Galeria Norte</text>
<polygon class="st17" points="-88.1,259.7 93.9,259.7 92.2,269.4 -89.8,269.4 "/>
<text transform="matrix(1 0 0 1 305.2 491.17)" class="st18 st19">Palco Norte</text>
<g id="Capa_2_00000112604410887128167500000001392212830507216540_">
	<rect x="41.9" y="509.3" class="st6" width="20" height="20"/>
	<rect x="150" y="509.3" class="st4" width="20" height="20"/>
	<rect x="279" y="509.3" class="st5" width="20" height="20"/>
	<rect x="399" y="509.3" class="st3" width="20" height="20"/>
	<text transform="matrix(1 0 0 1 69.1 523.68)" class="st18 st19">Vip Sur</text>
	<text transform="matrix(1 0 0 1 175.99 524.45)" class="st18 st19">Platea Sur</text>
	<text transform="matrix(1 0 0 1 425.66 524.79)" class="st18 st19">Galeria Sur</text>
	<text id="Palco_Sur" transform="matrix(1 0 0 1 306 523.44)" class="st18 st19">Palco Sur</text>
</g>
</svg>
