<?xml version="1.0" encoding="utf-8"?>
<!-- Generator: Adobe Illustrator 25.4.1, SVG Export Plug-In . SVG Version: 6.00 Build 0)  -->
<svg version="1.1" id="Capa_1" xmlns="http://www.w3.org/2000/svg" xmlns:xlink="http://www.w3.org/1999/xlink" x="0px" y="0px"
	 viewBox="0 0 600 491.4" style="enable-background:new 0 0 600 491.4;" xml:space="preserve">
<style type="text/css">
	.st0{display:none;}
	.st1{fill:#119B49;}
	.st2{fill:#F3192B;}
	.st3{fill:#1999CE;}
	.st4{fill:#F89938;}
	.st5{opacity:0.1;fill:#1999CE;enable-background:new    ;}
	.st6{opacity:0.1;fill:#119B49;enable-background:new    ;}
	.st7{opacity:0.1;fill:#4D4D4F;enable-background:new    ;}
	.st8{opacity:0.1;fill:#F3EC19;enable-background:new    ;}
	.st9{fill:#FFDA03;}
	.st10{fill:#4D4D4F;}
	.st11{fill:#6FBE44;}
	.st12{fill:none;stroke:#FFFFFF;}
	.st13{fill-rule:evenodd;clip-rule:evenodd;stroke:#231F20;stroke-width:0.2;}
	.st14{fill-rule:evenodd;clip-rule:evenodd;fill:#FFFFFF;stroke:#231F20;stroke-width:0.2;}
	.st15{clip-path:url(#SVGID_00000119103814503189818040000003809079631298748563_);}
	.st16{fill-rule:evenodd;clip-rule:evenodd;}
	.st17{fill-rule:evenodd;clip-rule:evenodd;fill:#FFFFFF;}
	.st18{fill-rule:evenodd;clip-rule:evenodd;fill:#F2BA27;}
	.st19{display:inline;fill:#231F20;}
	.st20{display:inline;fill:#FDBD10;}
	.st21{display:inline;fill:#FFFFFF;}
</style>
<g id="Layer_1" class="st0">
</g>
<g id="Layer_2">
	<path class="st1" d="M106.9,98.9l6.9-6.2l10.8,13c0,0-2.4,1.5-3.8,2.6c-1.4,1-2.2,2.4-2.2,2.4L106.9,98.9z"/>
	<path class="st1" d="M116.5,90.7c0,0,9.1-9.1,24-12.9s27.6-3.4,27.6-3.4l-0.4,31.2h6.4l0.2,27.1c0,0-7-0.3-11.8,0.9
		c-4.8,1.2-11.3,5-11.3,5l-19.9-19.4l4.4-3.6L116.5,90.7z"/>
	<polygon class="st1" points="170.6,74.2 179.9,74.2 180.1,90.7 170.5,90.3 	"/>
	<polygon class="st1" points="183.5,74.5 183.3,105.4 177,105.6 177.3,132.6 221.6,132.2 221.3,105.8 214.4,105.6 214.6,74.7 	"/>
	<polygon class="st2" points="218.3,74 218.7,90.7 227.3,90.8 227.1,74.2 	"/>
	<polygon class="st2" points="230.4,73.7 266.3,73.7 266.3,105.3 272.6,105.3 272.6,132.8 224.2,132.8 224.2,105.7 230,105.7 	"/>
	<rect x="270" y="74" class="st2" width="8.2" height="16.6"/>
	<polygon class="st2" points="281.6,74 317.5,74 317.5,105.5 323.8,105.5 323.8,133.1 275.4,133.1 275.4,105.9 281.2,105.9 	"/>
	<rect x="321.3" y="74.2" class="st2" width="8.2" height="16.6"/>
	<polygon class="st2" points="333.4,73.9 369.3,73.9 369.3,105.4 375.6,105.4 375.6,133 327.2,133 327.2,105.8 333,105.8 	"/>
	<rect x="373" y="74.1" class="st2" width="8.2" height="16.6"/>
	<polygon class="st1" points="385.1,73.7 385.1,105.4 378.4,105.4 378.4,133 423,133 423,105.7 416.8,105.7 416.8,73.6 	"/>
	<rect x="419.5" y="73.7" class="st1" width="9.1" height="16.6"/>
	<path class="st1" d="M425.5,132.8v-27.5c0,0,6.3,0.5,6.3,0.1s-0.3-30.8,0-31.4s12.4-1.9,29.5,4.8c17.1,6.7,21.8,11.4,21.8,11.4
		l-18.8,25.5l4.4,3.9l-19.3,18.8C449.4,138.4,439.3,131.1,425.5,132.8z"/>
	<path class="st3" d="M481.9,44.6l-9.4,24.5l5.8,3.2l-4,8.1c0,0,7.2,4.1,10.9,6.8c3.7,2.7,8.4,6.8,8.4,6.8l24.7-25.4
		c0,0-9.4-9.4-15.8-13.9S481.9,44.6,481.9,44.6z"/>
	<path class="st3" d="M81,69c0,0,9.6-8.9,16.5-13.6c6.9-4.7,20.4-11,20.4-11l9.8,24.6l-6,3.4l3.4,7.7c0,0-6.5,3.4-11,6.7
		c-4.5,3.3-8.8,6.7-8.8,6.7L81,69z"/>
	<path class="st3" d="M121,43.3c0,0,15.3-5.5,25.1-7c9.8-1.5,24.7-1.7,24.7-1.7l-1.2,35.6c0,0-6.9-0.7-17.9,0.9
		c-11,1.5-18.2,4.5-18.2,4.5L121,43.3z"/>
	<polygon class="st3" points="172.5,34.7 172.5,61 181.3,61 181.3,69.7 216.8,69.7 216.8,34.7 	"/>
	<polygon class="st2" points="220.4,34.7 220.4,61 229.2,61 229.2,69.7 268.6,69.8 268.6,34.7 	"/>
	<polygon class="st2" points="271.8,34.3 271.8,60.6 279.3,60.6 279.3,70.2 320,70.2 320,60.6 327.6,60.6 327.6,34.2 	"/>
	<polygon class="st2" points="330.8,34.3 330.8,69.7 371.7,69.7 371.7,60.6 379.6,60.6 379.6,34.2 	"/>
	<polygon class="st3" points="382.8,34.5 382.8,69.7 418.6,69.7 418.6,60.9 427.1,60.9 427.1,34.2 	"/>
	<path class="st3" d="M429.5,34.5c0,0,14-0.8,27.9,2.1c13.9,2.9,22.3,7,22.3,7l-14.2,32.3c0,0-8.1-3.3-18.3-4.9
		c-10.2-1.5-17.5-0.6-17.5-0.6L429.5,34.5z"/>
	<path class="st1" d="M485.3,93c0.3-0.4,7.2,7.2,7.2,7.2l-10.8,10l-5.8-4.9L485.3,93z"/>
	<path class="st4" d="M498.2,98.7l14.4,19.2l8.1-3.6l2.8,6.1l24.1-10.3c0,0-3.7-10.4-9.4-19.2s-14.8-17.7-14.8-17.7L498.2,98.7z"/>
	<polygon class="st4" points="487.5,116.7 481.7,110.2 492.5,100.2 499.3,107.8 	"/>
	<path class="st4" d="M454,142.5c0.3-0.5,19.4-18.4,19.4-18.4s3.5,4.1,3.6,3.7c0.1-0.4,25.2-18.8,25.2-18.8s9,11.5,12.6,24.3
		c3.6,12.9,3.6,27.3,3.6,27.3H487v6.1h-27.7c0,0,1.2-8.1-0.3-13.9C457.7,147,454,142.5,454,142.5z"/>
	<path class="st4" d="M516.3,126.8l33-13.3c0,0,7.5,17,8,25.8c0.5,8.8,0.9,23.4,0.9,23.4h-35.8c0,0,0.8-9.7-0.8-19.2
		C520,134,516.3,126.8,516.3,126.8z"/>
	<polygon class="st4" points="531.8,165.4 557.9,165.4 557.9,212.3 522.6,212.3 522.6,173.4 531.5,173.4 	"/>
	<path class="st4" d="M501.9,163.9c0,0.4,16.7,0,16.7,0v9.3h-17L501.9,163.9z"/>
	<polygon class="st4" points="459.2,169.6 486.4,169.6 486.4,175.7 518.6,175.7 518.6,211 487.1,211 487.1,216.9 459,217 	"/>
	<polygon class="st4" points="501.9,213.5 519.3,213.5 519.3,223.1 502,223.1 	"/>
	<polygon class="st4" points="522.4,223.6 532,223.6 532,215.4 557.9,215.4 557.9,275.7 531.9,275.7 531.9,267.9 522.5,267.9 	"/>
	<polygon class="st4" points="459.2,219.7 486.2,219.7 486.2,225.5 518.9,225.5 518.9,265.8 487,265.8 487,272 459.4,272 	"/>
	<polygon class="st4" points="502,268.5 518.6,268.5 518.6,278.1 502.2,278.1 	"/>
	<polygon class="st4" points="459.3,274.6 486.7,274.6 486.7,280.5 518.8,280.5 518.8,315.3 486.7,315.3 486.7,321.6 459.2,321.6 	
		"/>
	<polygon class="st4" points="522.5,278.6 557.8,278.6 557.8,325.9 532,325.9 532,318 522.2,318 	"/>
	<polygon class="st4" points="501.4,318.1 519,318.1 519,328.4 501.5,328.4 	"/>
	<path class="st4" d="M459.2,324.8h27.3v5.9h32.7c0,0-0.4,16.6-4.6,28.5c-4.2,11.9-12.7,22.8-12.7,22.8l-24.6-18.3l-3.2,3.6
		l-8.4-8.2l8.1-13.6l-14.8-5.4L459.2,324.8z"/>
	<path class="st4" d="M522.5,328.7h35.8c0,0,0.1,13-2.2,26s-7.3,23.4-7.3,23.4l-33-14C515.8,364.1,523.8,344.6,522.5,328.7z"/>
	<path class="st4" d="M523.3,371.3l-2.8,5.8l-7.9-3.7L498.2,393l25.5,25.2c0,0,10.3-10.2,13.4-15.6s10.3-21.9,10.3-21.9L523.3,371.3
		z"/>
	<polygon class="st4" points="486.4,374 500.5,385 493.8,392.4 480.9,379.6 	"/>
	<path class="st5" d="M473.8,411.6l10.7-7l9.3-7.1l25.5,24.8c0,0-9.9,9.9-18.9,14.8s-18.3,9.5-18.3,9.5l-9.9-24.3l6.4-3.4
		L473.8,411.6z"/>
	<path class="st6" d="M150.5,352.6c0,0,8.4,5.9,13,5.8s15.1,0,15.1,0v27.8c0,0-14.3,1.2-27.4-2.8c-13.1-4-20.1-11.3-20.1-11.3
		L150.5,352.6z"/>
	<rect x="181.7" y="358" class="st7" width="22.9" height="28.3"/>
	<rect x="207.2" y="357.7" class="st7" width="22.9" height="28.3"/>
	<rect x="232.8" y="357.9" class="st7" width="34.4" height="28.3"/>
	<rect x="269.8" y="357.9" class="st7" width="15.2" height="27.2"/>
	<rect x="269.6" y="385.8" class="st7" width="15.4" height="13.8"/>
	<rect x="288" y="385.6" class="st7" width="23.3" height="8.2"/>
	<rect x="314.3" y="385.7" class="st7" width="15.6" height="13.6"/>
	<rect x="315.5" y="358.3" class="st7" width="14.2" height="26.7"/>
	<path class="st7" d="M288.4,358.8h4.6v6.8h14v-7h4.5c0,0,0,35.4,0,35.6s-23.4,0-23.4,0L288.4,358.8z"/>
	<rect x="332.1" y="357.9" class="st7" width="35.1" height="28.3"/>
	<rect x="369.4" y="357.9" class="st7" width="23.8" height="28.5"/>
	<rect x="394.7" y="357.9" class="st7" width="23" height="28.4"/>
	<path class="st7" d="M320.9,401.3h51.7v-14h18v13.9h8.4v-13.9h17.6v13.9h8.1v-13.9c0,0,11.3,0.8,18.2-0.5s16.8-5.4,18.9-6.7
		c2.1-1.3,8.6-6.4,8.6-6.4l8.9,10.8l2.6-1.8l8.7,8.2c0,0-8.6,8.8-19.2,13.9s-17.8,8.1-30.1,8.3c-12.2,0.2-120.4,0-120.4,0
		L320.9,401.3L320.9,401.3z"/>
	<path class="st6" d="M421,385.7v-27.4c0,0,11.3,1.2,16.3-0.2c5-1.4,12.1-5.2,12.1-5.2l19.4,19.2c0,0-11.9,10.2-23,12.4
		C434.8,386.7,421,385.7,421,385.7z"/>
	<path class="st5" d="M429.9,420.9c0,0,12.6,0,18.8-1.1c6.2-1.1,17-5,17-5l14,33.2c0,0-11.1,5.3-23.7,6.9s-26.2,1.4-26.2,1.4
		L429.9,420.9z"/>
	<polygon class="st5" points="374.2,430.7 382.7,430.7 382.7,421 418.4,421 418.4,430.9 426.3,430.9 426.3,457.1 374.4,457.1 	"/>
	<rect x="329.3" y="421.2" class="st7" width="34.8" height="35.5"/>
	<rect x="282.2" y="421.4" class="st8" width="34.8" height="35.5"/>
	<rect x="269.1" y="431.3" class="st8" width="10.6" height="26"/>
	<polygon class="st8" points="220.6,430.7 228.2,430.7 228.2,421.3 266.2,421.3 266.2,457 220.5,457 	"/>
	<polygon class="st5" points="173.1,430.6 181.2,430.6 181.2,421.4 217.2,421.4 217.2,457.2 173.3,457.2 	"/>
	<path class="st5" d="M134.5,414.8c0,0,9.7,3.9,18.3,5.2c8.7,1.4,16.9,1,16.9,1l0.1,35.9c0,0-9.7,1.4-26.2-2.1s-23-7.1-23-7.1
		L134.5,414.8z"/>
	<path class="st5" d="M106.6,397.4c0,0,4.4,4.4,9.3,7.5c4.9,3.2,10.1,5.9,10.1,5.9l-4.8,8.8l6.9,3l-10.4,23.7c0,0-6.4-1.6-20-10.1
		s-16.6-13.7-16.6-13.7L106.6,397.4z"/>
	<path class="st7" d="M129.7,374c0,0,11.5,9.3,20.7,11.5s24.6,2.7,24.6,2.7l0.1,13.1l8.4-0.1v-13.6h17.4v13.5h8.2v-13.5H227v13.8
		h51.9v12H158.4c0,0-12.9,0-27.3-7.2c-14.4-7.4-21.6-16-21.6-16l9.7-9.5l1.4,1.4L129.7,374z"/>
	<polygon class="st9" points="42,169.6 67.8,169.6 67.8,177.5 77.1,177.5 77.1,212.2 42,212.2 	"/>
	<rect x="81.2" y="166.6" class="st4" width="16.9" height="6"/>
	<polygon class="st4" points="81.5,175.8 113.2,175.8 113.2,169.6 140.4,169.6 140.4,216.2 113.1,216.2 113.1,210.2 81.4,210.2 	"/>
	<polygon class="st4" points="113.1,225.4 113.1,219.5 140.5,219.5 140.5,271.7 113.3,271.7 113.3,265.5 81.3,265.5 81.3,225.9 	"/>
	<rect x="80.6" y="212.7" class="st4" width="17.6" height="10.6"/>
	<rect x="80.6" y="268.3" class="st4" width="17.5" height="9.9"/>
	<rect x="80.5" y="317.9" class="st4" width="17.6" height="10.6"/>
	<path class="st4" d="M81,280.9c0,0,32,0.3,32,0c0-0.3,0-6.2,0-6.2h27.4v47.4h-27.3v-6.7H81.4L81,280.9z"/>
	<path class="st4" d="M112.9,324.7h27.6c0,0-1.2,9.9,0.4,14.1s5.1,9.3,5.1,9.3l-20,19.7l-6.5-9.3l-26.9,15c0,0-7-10.2-8.8-19.9
		c-1.9-9.7-2.7-22.6-2.7-22.6l31.9,0.3L112.9,324.7z"/>
	<polygon class="st4" points="93.7,375.8 94.5,377.3 97.3,376.3 103.2,383.7 108.6,389.4 118.8,379.8 114.1,374.1 123.3,366.6 
		118.8,361 	"/>
	<path class="st4" d="M88,373.6l5.9,9.8l7.4,9.2L76.1,418c0,0-6.8-6.8-12.7-15.5s-11.2-21.4-11.2-21.4l23.7-9.8l3,6.1L88,373.6z"/>
	<path class="st4" d="M50.4,378c0.1,0.2,33-13.6,33-13.6s-4.2-9.4-5.2-17.8c-0.9-8.3-1.5-17.6-1.5-17.6H42.1
		C42.1,329,41.8,364.8,50.4,378z"/>
	<polygon class="st4" points="41.9,278.8 77.4,278.8 77.4,317.2 67.9,317.2 67.9,325.2 41.7,325.2 	"/>
	<polygon class="st4" points="42,215.7 68,215.7 68,223.3 77.5,223.3 77.5,267.6 68.2,267.6 68.2,275.1 41.7,275.1 	"/>
	<polygon class="st4" points="42,169.6 67.8,169.6 67.8,177.5 77.1,177.5 77.1,212.2 42,212.2 	"/>
	<path class="st10" d="M103.7,101.7c-0.3,0.3-6.6,9-9.4,13.4c-2.8,4.4-6.4,13.6-6.4,13.6l16.7,6.3l-0.9,2.3l-17.4-5.7
		c0,0-3.2,8.6-4.2,13.8c-1,5.2-0.3,17-0.3,17H140c0,0,0-6.6,1.4-10.2c1.4-3.6,4.1-8.8,4.1-8.8L103.7,101.7z"/>
	<path class="st10" d="M52.4,109.4c-0.1-0.1,4.5-10.3,9.4-17.1s14.3-18.7,14.3-18.7l25.1,25.1c0,0-5.2,6.2-7.3,9.4
		c-2.2,3.2-6.2,9.5-6.2,9.5l-8.4-3.4l-3.6,5.7L52.4,109.4z"/>
	<path class="st10" d="M51,113.1l32.4,13.5c0,0-2.8,8-4.1,14c-1.3,6-1.9,13.8-1.9,13.8h-9.1v7.7H41.7c0,0,0-14.9,2.4-25.6
		C46.5,125.8,51,113.1,51,113.1z"/>
</g>
<g id="Layer_3">
	<rect x="164.9" y="158.3" class="st11" width="268.9" height="173.7"/>
	<g>
		<polyline class="st12" points="170.4,193.9 217.5,193.9 217.5,299.5 171.3,299.5 		"/>
		<polyline class="st12" points="171.3,220.8 187.3,220.8 187.3,271.9 171.8,271.9 		"/>
		<path class="st12" d="M218.9,223c0,0,11.1,6,11.1,22c0,15.9-12.5,24.1-12.5,24.1"/>
	</g>
	<line class="st12" x1="298.9" y1="163.2" x2="298.9" y2="326.4"/>
	<g>
		<polyline class="st12" points="429,193.9 381.8,193.9 381.8,299.5 428.1,299.5 		"/>
		<polyline class="st12" points="428.1,220.8 412.1,220.8 412.1,271.9 427.6,271.9 		"/>
		<path class="st12" d="M380.5,223c0,0-11.1,6-11.1,22c0,15.9,12.5,24.1,12.5,24.1"/>
	</g>
	<rect x="170.1" y="163.2" class="st12" width="258.7" height="163.3"/>
</g>
<g id="Layer_5">
	<ellipse class="st13" cx="300.4" cy="242.2" rx="18.5" ry="30.6"/>
	<ellipse class="st14" cx="300.4" cy="241.9" rx="17.6" ry="27.9"/>
	<g>
		<g>
			<defs>
				<ellipse id="SVGID_1_" cx="300.4" cy="240.9" rx="16.5" ry="26.1"/>
			</defs>
			<clipPath id="SVGID_00000146490660557430440320000002429123403729780631_">
				<use xlink:href="#SVGID_1_"  style="overflow:visible;"/>
			</clipPath>
			<g style="clip-path:url(#SVGID_00000146490660557430440320000002429123403729780631_);">
				<rect x="297.5" y="210.6" class="st16" width="6.3" height="62.7"/>
				<rect x="308.5" y="210.6" class="st16" width="6.3" height="62.7"/>
				<rect x="286.1" y="210.6" class="st16" width="6.3" height="62.7"/>
			</g>
		</g>
	</g>
	<path class="st17" d="M315,242.2v-14.5c-13.6-5.9-28.9-0.2-28.9-0.2l-0.4,14.7c0,0,13.9-13.8,29.4,0"/>
	<path class="st18" d="M283.7,237.9c0,0,15.6-8.6,33.4,0.1l0.1,4c-18.2-14.7-33.7-0.4-33.7-0.4L283.7,237.9z"/>
	<ellipse class="st17" cx="300.4" cy="255.1" rx="6.9" ry="8.4"/>
	<path class="st16" d="M303.6,250.6c-1,0.9-1.3-0.3-1.3-0.6c0.1-0.1,0.2-0.3,0.2-0.4c0-0.3-0.3-0.6-0.6-0.6c-0.3,0-0.6,0.3-0.6,0.6
		c0,0.1,0,0.2,0.1,0.3c-1,1.7-1.8,0.3-2-0.1c0-0.1,0.1-0.2,0.1-0.3c0-0.3-0.3-0.6-0.6-0.6s-0.6,0.3-0.6,0.6c0,0.2,0.1,0.3,0.2,0.5
		c-0.1,0.3-0.3,1.4-1.3,0.6c-1.2-1-1,0-0.7,0.5c0.2,0.5,0.9,1.5,0.9,1.5h0.1l0.1-0.1c0.7-0.2,3.3-0.9,6,0.1c0,0,0.6-1,0.9-1.5
		C304.6,250.6,304.8,249.5,303.6,250.6z"/>
	<ellipse class="st17" cx="300.4" cy="263.9" rx="6.1" ry="3.8"/>
	<path class="st16" d="M300.4,266.3c-5.3-4.2-5-7.3-5-7.3s0-2.4,0-3.5s1.3-1.3,1.3-1.3h3.1h1.2h3.1c0,0,1.3,0.1,1.3,1.3
		c0,1.1,0,3.5,0,3.5S305.7,262.1,300.4,266.3"/>
	<path class="st17" d="M303.4,257.1c-0.3-0.5-0.9-0.3-0.9-0.3c-0.6,0.3-0.3,1.2-0.3,1.2l0,0c0,0,0.1,0.2,0.4,1.1
		c0.3,0.8-0.2,0.7-0.2,0.7c-0.6,0-0.7-0.6-0.7-0.6c-0.2-1.8-0.6-2.8-0.6-2.8c-0.6-0.8-1.7-1-1.7-1c-0.9-0.1-1.4-0.4-1.4-0.4h-0.3
		c0.1,0.7,0.4,0.9,0.4,0.9l0.2,1.3l0.7,0.6l-0.2,0.1c-0.2-0.1-0.5-0.2-0.7-0.2h0.1c-0.2-0.2-0.3-0.2-0.3-0.2
		c-0.1,0.1-0.1,0.2-0.2,0.2c-0.7,0.1-1.2,0.5-1.2,0.5l0.1,0.3c0.4-0.3,1-0.4,1-0.4c-0.3,0.8,0.3,1.3,0.3,1.3h0.5V259
		c-0.4-0.3-0.4-0.7-0.4-0.7l0.6,0.2l0.7,0.5l0.1,0.6c-0.6,0.6-0.4,1.6-0.4,1.6c-0.8,0.4-1.1,0.3-1.1,0.3c-0.4,0.1-0.5,0.4-0.5,0.4
		l0.1,0.4l0.6-0.1c0.1-0.2,0.7-0.3,0.7-0.3l0.9-0.2c0.4-0.3,0.8-0.4,0.8-0.4c0.2,0.6,0.7,1,0.7,1c0.3,0.5,0,0.8,0,0.8
		c-0.2,0.5-0.1,1.1-0.1,1.1l0.7-0.2l-0.1-0.7c0.1-0.3,0.6-0.5,0.6-0.5l-0.1-0.4c0-0.6,0.4-1.2,0.4-1.2c0.5-0.6,0.4-0.9,0.4-0.9
		c0.3-0.8,0-1.4,0-1.4c-0.3-0.6-0.4-1.2-0.4-1.2c-0.2-0.5,0.3-0.7,0.3-0.7c-0.2,0.6,0.5,0.9,0.5,0.9
		C303.7,257.8,303.4,257.1,303.4,257.1z"/>
	<g>
		<path class="st16" d="M286.4,229.1l1.3-0.5v5.5c0,0-0.2,1.3-1.8,1.3v-0.9c0,0,0.5,0,0.5-0.3C286.4,233.8,286.4,229.1,286.4,229.1z
			"/>
		<path class="st16" d="M288.5,228.4l1.3-0.4v5c0,0,0,0.3,0.4,0.4c0.4,0,0.4-0.2,0.4-0.4s0-5.2,0-5.2l1.3-0.4v5.2c0,0,0,1.6-1.9,1.6
			c-0.6,0-1.4-0.3-1.4-1C288.5,232.5,288.5,228.4,288.5,228.4z"/>
		<polygon class="st16" points="292.5,227.3 293.8,227 294.4,231.4 294.8,226.8 296.2,226.6 295.5,232.9 293.3,233.3 		"/>
		<polygon class="st16" points="296.8,226.6 299.2,226.5 299.2,227.6 298.1,227.6 298.1,229 299.2,229 299.2,230 298.1,230 
			298.1,231.6 299.3,231.6 299.3,232.7 296.8,232.8 		"/>
		<polygon class="st16" points="300,226.5 301.1,226.5 302.2,229.4 302.2,226.5 303.3,226.5 303.3,232.7 302.1,232.7 301.1,229.9 
			301.1,232.7 300,232.7 		"/>
		<polygon class="st16" points="304,226.6 307.1,227 307.1,228 306.3,228 306.3,233 304.9,232.8 304.9,227.7 303.9,227.6 		"/>
		<path class="st16" d="M307.8,227.1l1.3,0.3v4.7c0,0,0,0.9,0.5,0.9c0,0,0.3,0,0.4-0.4c0-0.5,0-4.9,0-4.9l1.2,0.2v4.9
			c0,0,0,0.9-1.1,1c0,0-2.2,0.3-2.2-2.1L307.8,227.1z"/>
		<path class="st16" d="M313.7,230.4l1.2,0.3v-0.9c0,0-0.3-1.4-2.3-1.5c0,0-0.8,0.2-0.8,0.7v1.2c0,0,0.1,0.5,0.6,1
			c0.3,0.3,1.3,1.3,1.3,1.3s0.2,0.2,0.2,0.6c0,0.4,0,0.8,0,0.8s0,0.2-0.4,0.2s-0.4-0.3-0.4-0.4c0-0.1,0-1,0-1l-1.1-0.4v1.2
			c0,0,0.2,1.4,1.8,1.6h0.7c0,0,0.5,0,0.5-0.7v-1.6c0,0,0.1-0.1-1.5-1.8c0,0-0.4-0.4-0.4-0.7s0-0.8,0-0.8s0.1-0.3,0.6-0.1
			C313.8,229.4,313.7,230.4,313.7,230.4z"/>
	</g>
</g>
<g id="Layer_6" class="st0">
	<path class="st19" d="M281.6,253.4c0,16.1,7.7,29.3,17.2,29.3c9.5,0,17.2-13.1,17.2-29.3c0-16.1-7.7-29.3-17.2-29.3
		S281.6,237.2,281.6,253.4z"/>
	<path class="st20" d="M281.9,253.4c0-16,7.6-29,16.9-29c9.3,0,16.9,13,16.9,29s-7.6,29-16.9,29
		C289.5,282.3,281.9,269.3,281.9,253.4z"/>
	<path class="st19" d="M283.3,253.4c0,15.1,7,27.4,15.5,27.4s15.5-12.3,15.5-27.4s-7-27.4-15.5-27.4S283.3,238.3,283.3,253.4z"/>
	<path class="st20" d="M303.3,254.3c0.4-1.4,0.9-3.2,1-3.3c-0.1-0.1-0.6-0.4-0.8-0.5c-0.1,0.2-0.4,0.8-0.4,0.8l-1.3-0.1
		c0,0,0-1,0-1.2h-0.9c0,0.2,0,1,0,1h-1.5c0,0,0-0.9,0-1.2h-1c0,0.2,0,1.2,0,1.2h-1.5c0,0,0-0.8,0-1H296c0,0.2,0,1.2,0,1.2l-1.3,0.1
		c0,0-0.3-0.6-0.4-0.8c-0.2,0.1-0.7,0.4-0.8,0.5c0,0.1,0.6,2,1,3.3c1.3-0.4,2.8-0.7,4.5-0.7C300.5,253.6,302.1,253.9,303.3,254.3z"
		/>
	<path class="st21" d="M283.6,252.8c0,0.2,0,0.4,0,0.5c0,5.1,0.8,9.8,2.2,13.9v-15.6C285,252,284.3,252.4,283.6,252.8z"/>
	<path class="st21" d="M294.4,255.8L294.4,255.8l-1.5-5l1.2-0.8c0,0,0.4,0.8,0.5,0.9c0.1,0,0.7,0,0.9-0.1c0-0.2,0-1.2,0-1.2h0.5
		v-0.8c-1.7,0.1-3.3,0.4-4.9,0.8v27.1c1.5,1.5,3.1,2.6,4.9,3.2v-8.2c-0.3-0.2-0.7-0.3-1-0.4c-0.3-0.1-0.7-0.3-1-0.5h-0.1l0.2-1
		c0.4-1.7,0.6-3,0.6-4.9c0-1.8-0.5-4.5-0.5-4.5v-0.1h0.1c0,0,0.9-0.4,1.7-0.8v-2.7C295.1,256.5,294.5,256.2,294.4,255.8z"/>
	<path class="st21" d="M301.5,248.9v0.8h0.5c0,0,0,1,0,1.2c0.2,0,0.7,0,0.9,0.1c0.1-0.1,0.5-0.9,0.5-0.9l1.2,0.8l-1.5,5l0,0
		c0,0.4-0.7,0.7-1.7,0.9v2.7c0.8,0.4,1.7,0.8,1.7,0.8h0.1v0.1c0,0-0.5,2.8-0.5,4.5c0,2,0.3,3.2,0.6,4.9l0.2,1l-0.1,0.1
		c-0.4,0.2-0.7,0.3-1,0.5c-0.3,0.1-0.6,0.3-1,0.4v8.2c1.7-0.6,3.4-1.7,4.9-3.2v-27.1C304.8,249.3,303.2,249,301.5,248.9z"/>
	<path class="st21" d="M314,253.4c0-0.2,0-0.4,0-0.5c-0.7-0.4-1.4-0.8-2.2-1.1v15.6C313.2,263.2,314,258.4,314,253.4z"/>
	<path class="st21" d="M314,252.1c-0.1-4.4-0.8-8.6-2-12.2c-3.9,1.9-8.4,2.9-13.2,2.9c-4.8,0-9.3-1.1-13.2-2.9
		c-1.2,3.6-1.9,7.8-2,12.2c4.3-2.5,9.5-4,15.2-4C304.5,248.2,309.7,249.6,314,252.1z"/>
	<path class="st21" d="M301.5,226.7v15.5c1.7-0.1,3.3-0.4,4.9-0.8v-11.5C304.9,228.4,303.3,227.3,301.5,226.7z"/>
	<path class="st21" d="M291.2,229.9v11.5c1.6,0.4,3.2,0.7,4.9,0.8v-15.5C294.3,227.3,292.7,228.4,291.2,229.9z"/>
	<path class="st19" d="M302.4,252.5c0-0.3,0.2-0.5,0.5-0.5s0.5,0.2,0.5,0.5s-0.2,0.5-0.5,0.5C302.6,252.9,302.4,252.7,302.4,252.5"
		/>
	<path class="st19" d="M300.6,252.1c0-0.3,0.2-0.5,0.5-0.5s0.5,0.2,0.5,0.5s-0.2,0.5-0.5,0.5C300.9,252.6,300.6,252.4,300.6,252.1"
		/>
	<path class="st19" d="M298.3,252c0-0.3,0.2-0.5,0.5-0.5s0.5,0.2,0.5,0.5s-0.2,0.5-0.5,0.5C298.5,252.5,298.3,252.3,298.3,252"/>
	<path class="st19" d="M294.2,252.5c0-0.3,0.2-0.5,0.5-0.5s0.5,0.2,0.5,0.5s-0.2,0.5-0.5,0.5C294.4,252.9,294.2,252.7,294.2,252.5"
		/>
	<path class="st19" d="M296,252.1c0-0.3,0.2-0.5,0.5-0.5c0.3,0,0.5,0.2,0.5,0.5s-0.2,0.5-0.5,0.5C296.2,252.6,296,252.4,296,252.1"
		/>
	<path class="st20" d="M298.8,257.7c0.1,0.1,0.7,0.6,0.7,0.6c0.4,0.3,0.8,0.7,1.4,1c0.7,0.4,1.8,0.9,2.1,1.1
		c-0.1,0.5-0.5,2.9-0.5,4.5c0,0,0,0,0,0.1c0,2,0.3,3.2,0.6,5c0,0,0.1,0.6,0.2,0.8c-0.3,0.2-0.6,0.3-0.9,0.4
		c-0.5,0.2-1.1,0.5-1.7,0.9c-0.7,0.4-1.6,1.2-1.9,1.5c-0.3-0.3-1.2-1-1.9-1.5c-0.6-0.4-1.2-0.6-1.7-0.9c-0.3-0.1-0.6-0.3-0.9-0.4
		c0-0.2,0.2-0.8,0.2-0.8c0.4-1.7,0.6-3,0.6-5l0,0c0-1.6-0.4-3.9-0.5-4.5c0.3-0.2,1.4-0.6,2.1-1.1c0.6-0.4,1-0.7,1.4-1
		C298.1,258.3,298.7,257.8,298.8,257.7L298.8,257.7z"/>
	<path class="st19" d="M286.6,241.8v5.6c0,0.2,0,0.4,0,0.5s0,0.3-0.1,0.4c0,0.1-0.1,0.2-0.2,0.3c-0.1,0.1-0.2,0.1-0.3,0.2
		c-0.1,0-0.1,0-0.2,0c-0.1,0-0.1-0.1-0.1-0.2c0-0.1-0.1-0.2-0.1-0.4s0-0.4,0-0.6V247h-0.2h-0.1h-0.1h-0.1v0.9c0,0.2,0,0.4,0,0.7
		s0.1,0.5,0.2,0.7c0.1,0.2,0.2,0.4,0.3,0.5s0.3,0.1,0.5,0c0.1-0.1,0.3-0.1,0.4-0.3c0.1-0.1,0.2-0.3,0.3-0.5c0.1-0.2,0.2-0.5,0.2-0.8
		c0.1-0.3,0.1-0.7,0.1-1.1v-5.3l-0.2-0.1h-0.1h-0.1L286.6,241.8L286.6,241.8z"/>
	<path class="st19" d="M288.2,242.3v4.4c0,0.3,0,0.6,0.1,0.9c0.1,0.3,0.1,0.5,0.2,0.7c0.1,0.2,0.3,0.3,0.4,0.4
		c0.2,0.1,0.4,0.1,0.7,0c0.2-0.1,0.5-0.2,0.6-0.3c0.2-0.1,0.3-0.3,0.5-0.5c0.1-0.2,0.2-0.4,0.3-0.7c0.1-0.3,0.1-0.5,0.1-0.7v-3.3
		h-0.2h-0.1h-0.1h-0.2v3.4c0,0.3,0,0.5-0.1,0.7c0,0.2-0.1,0.3-0.2,0.5c-0.1,0.1-0.2,0.2-0.3,0.3c-0.1,0.1-0.2,0.1-0.3,0.1
		s-0.2,0-0.3,0c-0.1,0-0.2-0.1-0.3-0.2c-0.1-0.1-0.2-0.3-0.2-0.5s-0.1-0.5-0.1-0.8v-4h-0.2h-0.1h-0.1L288.2,242.3L288.2,242.3z"/>
	<path class="st19" d="M291.8,243.3l0.3,1.2l0.3,1.1l0.3,1.1l0.3,1.1h0.2h0.1h0.1h0.2l0.3-1.1l0.3-1l0.3-0.9l0.3-0.9h-0.2h-0.1h-0.1
		h-0.2l-0.3,0.8l-0.3,0.8l-0.3,0.9c0,0-0.2,0.6-0.2,0.8c-0.1-0.2-0.2-0.7-0.2-0.7l-0.3-0.9l-0.3-0.9l-0.3-1h-0.2h-0.1L291.8,243.3
		L291.8,243.3z"/>
	<path class="st19" d="M295.7,243.9v3.5l0.7-0.1h0.7h0.6v-0.5l-1,0.1c0,0-0.4,0-0.5,0c0-0.1,0-1,0-1c0.1,0,0.9,0,0.9,0h0.3v-0.5
		h-0.3h-0.5h-0.4c0-0.1,0-0.9,0-1c0.1,0,0.5,0,0.5,0h0.5h0.4v-0.5h-0.7h-0.7H295.7L295.7,243.9z"/>
	<path class="st19" d="M301.1,243.9H301h-0.1h-0.1h-0.2c0,0,0,2.3,0,2.6c-0.1-0.2-0.4-0.6-0.4-0.6l-0.4-0.7l-0.4-0.6l-0.5-0.6h-0.6
		v3.3h0.6c0,0,0-2.2,0-2.5c0.1,0.1,0.4,0.5,0.4,0.5l0.4,0.6l0.4,0.7l0.5,0.7h0.2h0.1h0.1h0.2L301.1,243.9L301.1,243.9z"/>
	<path class="st19" d="M304.7,243.4l-0.7,0.1l-0.7,0.1l-0.7,0.1c-0.2,0-0.5,0.1-0.7,0.1l0,0v0.5h0.3h0.2h0.1h0.2h0.1l0,0h0.2l0,0
		c0,0.1,0,3.4,0,3.4h0.3h0.1h0.1h0.1c0,0,0-3.4,0-3.5c0.1,0,0.3,0,0.3,0h0.3h0.1h0.2l0.3-0.1L304.7,243.4L304.7,243.4z"/>
	<path class="st19" d="M308.3,242.5h-0.1l-0.2,0.1h-0.1v3.7c0,0.3,0,0.5-0.1,0.7c0,0.2-0.1,0.3-0.2,0.4c-0.1,0.1-0.2,0.2-0.3,0.2
		c-0.1,0-0.2,0-0.3,0c-0.1,0-0.2-0.1-0.3-0.1c-0.1-0.1-0.2-0.2-0.3-0.3c-0.1-0.1-0.2-0.3-0.2-0.4c-0.1-0.2-0.1-0.4-0.1-0.6v-3.1
		h-0.2h-0.1h-0.1h-0.1v3.1c0,0.2,0,0.5,0.1,0.7s0.1,0.4,0.3,0.6c0.1,0.2,0.3,0.3,0.4,0.5c0.2,0.2,0.4,0.3,0.6,0.3
		c0.2,0.1,0.5,0.1,0.7,0s0.3-0.2,0.5-0.4c0.1-0.2,0.2-0.4,0.3-0.7c0.1-0.3,0.1-0.6,0.1-0.9L308.3,242.5L308.3,242.5z"/>
	<path class="st19" d="M310.6,241.6c-0.2,0.1-0.4,0.2-0.6,0.4s-0.3,0.4-0.4,0.6c-0.1,0.2-0.2,0.5-0.2,0.7c0,0.3-0.1,0.5-0.1,0.8
		s0,0.5,0.1,0.7s0.1,0.3,0.2,0.5c0.1,0.1,0.2,0.2,0.3,0.3c0.1,0.1,0.2,0.1,0.2,0.1l0.2,0.1l0.1,0.1h0.1l0.2,0.1l0.1,0.1h0.1
		c0.1,0.1,0.3,0.2,0.4,0.2c0.1,0.1,0.2,0.2,0.2,0.3c0.1,0.1,0.1,0.2,0.1,0.4s0,0.4,0,0.6c0,0.3,0,0.5-0.1,0.7c0,0.1-0.1,0.3-0.2,0.3
		c-0.1,0.1-0.2,0.1-0.3,0.1c-0.1,0-0.2,0-0.3,0c-0.1,0-0.2-0.1-0.3-0.2c-0.1-0.1-0.2-0.2-0.3-0.3c-0.1-0.2-0.2-0.3-0.2-0.5
		c-0.1-0.2-0.1-0.5-0.1-0.8l0,0h-0.2h-0.1h-0.1h-0.2v0.5c0,0.1,0,0.3,0.1,0.5c0,0.2,0.1,0.3,0.1,0.4c0.1,0.2,0.1,0.3,0.2,0.5
		l0.1,0.2c0.1,0.1,0.1,0.2,0.2,0.3s0.2,0.2,0.3,0.3c0.1,0.1,0.3,0.2,0.4,0.2c0.2,0.1,0.3,0.1,0.5,0.1s0.3-0.1,0.5-0.3
		c0.2-0.1,0.3-0.4,0.4-0.7s0.1-0.7,0.1-1.2c0-0.3,0-0.6-0.1-0.9c0-0.3-0.1-0.5-0.2-0.7s-0.2-0.3-0.3-0.5c-0.1-0.1-0.2-0.2-0.3-0.3
		l-0.1-0.1l-0.1-0.1l-0.1-0.1l-0.1-0.1l-0.1-0.1l-0.1-0.1l-0.3-0.1l-0.2-0.1l-0.1-0.1c0-0.1-0.1-0.1-0.1-0.2c0-0.1,0-0.2,0-0.4
		s0-0.5,0.1-0.7c0-0.2,0.1-0.3,0.2-0.4c0.1-0.1,0.2-0.2,0.3-0.2l0.2-0.1l0,0c0.1,0,0.2,0,0.3,0c0.1,0,0.2,0.1,0.3,0.2
		c0.1,0.1,0.2,0.2,0.2,0.4c0.1,0.2,0.1,0.5,0.1,0.8v0.1h0.2h0.1h0.1h0.2v-0.1c0-0.2,0-0.5-0.1-0.8c0-0.2-0.1-0.6-0.2-0.8
		c-0.1-0.3-0.3-0.5-0.4-0.6C311.1,241.5,310.9,241.5,310.6,241.6z"/>
	<path class="st20" d="M294.3,254.6c0.1,0.3,0.2,0.6,0.2,0.8c0.6-0.5,2.4-0.8,4.2-0.8s3.6,0.3,4.2,0.8c0.1-0.2,0.1-0.5,0.2-0.8
		c-1.2-0.4-2.8-0.7-4.5-0.7C297.1,253.9,295.6,254.2,294.3,254.6z"/>
	<path class="st19" d="M296.8,260.4c0,0,0.4,0.4,0.5,0.4c0.1,0.1,0.3,0.1,0.4,0.2c0.7,0.2,1.8,0.6,2.1,1.1c0.4,0.6,0.5,2.4,0.6,3.4
		c0,0.3,0.1,0.8,0.3,0.9c0.2,0.2,0.5,0,0.4-0.3c-0.1-0.8-0.7-2.2,0.1-2.5c0.2-0.1,0.5,0,0.6,0.1c0.3,0.2,0.3,0.6,0.2,1
		c0,0.2,0,0.3,0.1,0.4c0,0-0.1,0,0,0c-0.2-0.1-0.5-0.3-0.5-0.5c-0.1-0.2,0.1-0.4,0-0.6h-0.1c-0.3,0.1,0,0.9,0.1,1.1
		c0.2,0.7,0.4,1.7,0,2.3c-0.1,0.1-0.2,0.1-0.3,0.2c-0.1,0.1-0.1,0.4-0.2,0.5c-0.2,0.2-0.5,0.4-0.6,0.7c-0.1,0.4,0.2,0.4,0.1,0.6
		c0,0.1-1,0.4-0.9,1c0,0.1,0.1,0.1,0.1,0.2c0.1,0.2-0.4,0.5-0.6,0.3c-0.3-0.1-0.1-0.9,0-1.1c0.1-0.1,0.2-0.1,0.3-0.2
		c0-0.2,0.1-0.5,0-0.7c0-0.2-0.3-0.3-0.3-0.5c-0.1-0.2-0.3-0.8-0.6-0.7c-0.3,0.1-0.4,0.3-0.9,0.3c-0.1,0-0.3,0-0.5-0.1
		c-0.1,0-0.3-0.2-0.5-0.1c-0.3,0.1,0,0.6-0.5,0.5c-0.1,0-0.3-0.1-0.3-0.2c-0.1-0.1,0-0.3,0-0.4c0.1-0.5,0.9-0.3,1.4-0.4
		c0.4-0.1,0.1-0.5,0.3-0.9c0.1-0.2,0.2-0.4,0.4-0.6c0.1-0.1,0.3-0.3,0.2-0.5l0,0c-0.2-0.2-0.4-0.4-0.6-0.7c-0.1-0.1-0.3-0.2-0.5-0.3
		c-0.1-0.1-0.1-0.1-0.2-0.1c-0.1,0.3,0.1,0.4,0.1,0.6c0,0.1,0,0.2,0,0.3s-0.1,0.1-0.1,0.2c-0.2,0.1-0.3,0-0.4-0.1
		c-0.4-0.5,0.1-0.9-0.1-1.4c-0.2-0.4-0.4,0.3-0.7,0.3c-0.5,0.1-0.3-0.4-0.2-0.6c0-0.1,0.1-0.3,0.2-0.3c0.2-0.1,0.1,0.1,0.6,0
		c0.1,0,0.3-0.6,0.6-0.1c0.2,0.2,0.3,0.5,0.6,0.1c0,0,0.1-0.2,0.1-0.3h-0.1c-0.2,0.1-0.4,0.1-0.5,0c-0.4-0.4,0.2-0.9,0.1-1.4
		c0-0.1-0.1-0.2-0.2-0.3c-0.1-0.2-0.3-0.8-0.3-0.8s0.3,0.3,0.5,0.2C297.1,260.9,296.8,260.4,296.8,260.4"/>
	<path class="st19" d="M290.8,210.7c0,0-1.3,4-1.4,4.2c-0.2,0-4.8,0-4.8,0s3.7,2.7,3.9,2.8c-0.1,0.2-1.5,4.6-1.5,4.6
		s3.7-2.7,3.9-2.8c0.2,0.1,3.9,2.8,3.9,2.8s-1.4-4.4-1.5-4.6c0.2-0.1,3.9-2.8,3.9-2.8s-4.6,0-4.8,0c-0.1-0.2-1.5-4.6-1.5-4.6
		L290.8,210.7z"/>
	<path class="st19" d="M306.5,210.7c0,0-1.3,4-1.4,4.2c-0.2,0-4.8,0-4.8,0s3.7,2.7,3.9,2.8c-0.1,0.2-1.5,4.6-1.5,4.6
		s3.7-2.7,3.9-2.8c0.2,0.1,3.9,2.8,3.9,2.8s-1.4-4.4-1.5-4.6c0.2-0.1,3.9-2.8,3.9-2.8s-4.6,0-4.8,0c-0.1-0.2-1.5-4.6-1.5-4.6
		L306.5,210.7z"/>
	<path class="st20" d="M289.6,215.1h0.1c0,0,1.1-3.2,1.3-3.9c0.2,0.7,1.3,3.9,1.3,3.9s3.4,0,4.1,0c-0.6,0.4-3.4,2.4-3.4,2.4
		s1.1,3.2,1.3,3.9c-0.6-0.4-3.3-2.4-3.3-2.4s-2.8,2-3.3,2.4c0.2-0.7,1.3-3.9,1.3-3.9s-2.8-2-3.3-2.4
		C286.3,215.1,289.6,215.1,289.6,215.1z"/>
	<path class="st20" d="M305.2,215.1h0.1c0,0,1.1-3.3,1.3-3.9c0.2,0.7,1.3,3.9,1.3,3.9s3.4,0,4.1,0c-0.6,0.4-3.4,2.4-3.4,2.4
		s1.1,3.2,1.3,3.9c-0.6-0.4-3.3-2.4-3.3-2.4s-2.8,2-3.4,2.4c0.2-0.7,1.3-3.9,1.3-3.9s-2.8-2-3.3-2.4
		C301.9,215.1,305.2,215.1,305.2,215.1z"/>
</g>
</svg>
