<?xml version="1.0" encoding="utf-8"?>
<!-- Generator: Adobe Illustrator 18.0.0, SVG Export Plug-In . SVG Version: 6.00 Build 0)  -->
<!DOCTYPE svg PUBLIC "-//W3C//DTD SVG 1.1//EN" "http://www.w3.org/Graphics/SVG/1.1/DTD/svg11.dtd">
<svg version="1.1" xmlns="http://www.w3.org/2000/svg" xmlns:xlink="http://www.w3.org/1999/xlink" x="0px" y="0px"
	 viewBox="0 0 516.6 423.1" enable-background="new 0 0 516.6 423.1" xml:space="preserve">
<g id="Layer_1" display="none">
		<image display="inline" overflow="visible" width="943" height="595" xlink:href="871BD043.jpg"  transform="matrix(0.75 0 0 0.75 -185.8104 -10.3383)">
	</image>
</g>
	<defs>
        <style>.disableSection{opacity:0.3;}</style>
    </defs>
<g id="Layer_2">
	top area
	<path id="idsvg1" class="areaSvgStadium" stroke-width="0" fill="#119B49" stroke="#119B49" d="M65.2,64.7l6.9-6.2l10.8,13c0,0-2.4,1.5-3.8,2.6c-1.4,1-2.2,2.4-2.2,2.4L65.2,64.7z"/>
	<path id="idsvg2" class="areaSvgStadium" stroke-width="0" fill="#119B49" stroke="#119B49" d="M74.8,56.5c0,0,9.1-9.1,24-12.9c14.9-3.8,27.6-3.4,27.6-3.4L126,71.4h6.4l0.2,27.1c0,0-7-0.3-11.8,0.9
		c-4.8,1.2-11.3,5-11.3,5L89.6,85l4.4-3.6L74.8,56.5z"/>
	<polygon id="idsvg3" class="areaSvgStadium" stroke-width="0" fill="#119B49" stroke="#119B49" points="128.9,40 138.2,40 138.4,56.5 128.8,56.1 	"/>
	<polygon id="idsvg4" class="areaSvgStadium" stroke-width="0" fill="#119B49" stroke="#119B49" points="141.8,40.3 141.6,71.2 135.3,71.4 135.6,98.4 179.9,98 179.6,71.6 172.7,71.4 172.9,40.5 	"/>
	<polygon id="idsvg5" class="areaSvgStadium" stroke-width="0" fill="#F3192B" stroke="#F3192B" points="176.6,39.8 177,56.5 185.6,56.6 185.4,40 	"/>
	<polygon id="idsvg6" class="areaSvgStadium" stroke-width="0" fill="#F3192B" stroke="#F3192B" points="188.7,39.5 224.6,39.5 224.6,71.1 230.9,71.1 230.9,98.6 182.5,98.6 182.5,71.5 188.3,71.5 	"/>
	<rect id="idsvg7" class="areaSvgStadium" stroke-width="0" x="228.3" y="39.8" fill="#F3192B" width="8.2" height="16.6"/>
	<polygon id="area1" class="areaSvgStadium" stroke-width="0" fill="#F3192B" stroke="#F3192B" points="239.9,39.8 275.8,39.8 275.8,71.3 282.1,71.3 282.1,98.9 233.7,98.9 233.7,71.7 239.5,71.7 	"/>
	<rect id="idsvg8" class="areaSvgStadium" stroke-width="0" x="279.6" y="40" fill="#F3192B" stroke="#F3192B" width="8.2" height="16.6"/>
	<polygon id="idsvg9" class="areaSvgStadium" stroke-width="0" fill="#F3192B" stroke="#F3192B" points="291.7,39.7 327.6,39.7 327.6,71.2 333.9,71.2 333.9,98.8 285.5,98.8 285.5,71.6 291.3,71.6 	"/>
	<rect id="idsvg10" class="areaSvgStadium" stroke-width="0" x="331.3" y="39.9" fill="#F3192B" stroke="#F3192B" width="8.2" height="16.6"/>
	<polygon id="idsvg11" class="areaSvgStadium" stroke-width="0" fill="#119B49" stroke="#119B49" points="343.4,39.5 343.4,71.2 336.7,71.2 336.7,98.8 381.3,98.8 381.3,71.5 375.1,71.5 375.1,39.4 	"/>
	<rect id="idsvg12" class="areaSvgStadium" stroke-width="0" x="377.8" y="39.5" fill="#119B49" stroke="#119B49" width="9.1" height="16.6"/>
	<path id="idsvg13" class="areaSvgStadium" stroke-width="0" fill="#119B49" stroke="#119B49" d="M383.8,98.6V71.1c0,0,6.3,0.5,6.3,0.1c0-0.4-0.3-30.8,0-31.4c0.3-0.6,12.4-1.9,29.5,4.8S441.4,56,441.4,56
		l-18.8,25.5l4.4,3.9l-19.3,18.8C407.7,104.2,397.6,96.9,383.8,98.6z"/>
	<path id="idsvg14" class="areaSvgStadium" stroke-width="0" fill="#1999CE" stroke="#1999CE" d="M440.2,10.4l-9.4,24.5l5.8,3.2l-4,8.1c0,0,7.2,4.1,10.9,6.8c3.7,2.7,8.4,6.8,8.4,6.8l24.7-25.4
		c0,0-9.4-9.4-15.8-13.9S440.2,10.4,440.2,10.4z"/>
	<path id="idsvg15" class="areaSvgStadium" stroke-width="0" fill="#1999CE" stroke="#1999CE" d="M39.3,34.8c0,0,9.6-8.9,16.5-13.6s20.4-11,20.4-11L86,34.8l-6,3.4l3.4,7.7c0,0-6.5,3.4-11,6.7
		c-4.5,3.3-8.8,6.7-8.8,6.7L39.3,34.8z"/>
	<path class="areaSvgStadium" stroke-width="0" fill="#1999CE" stroke="#1999CE" d="M79.3,9.1c0,0,15.3-5.5,25.1-7s24.7-1.7,24.7-1.7L127.9,36c0,0-6.9-0.7-17.9,0.9c-11,1.5-18.2,4.5-18.2,4.5
		L79.3,9.1z"/>
	<polygon id="idsvg16" class="areaSvgStadium" stroke-width="0" fill="#1999CE" stroke="#1999CE" points="130.8,0.5 130.8,26.8 139.6,26.8 139.6,35.5 175.1,35.5 175.1,0.5 	"/>
	<polygon id="idsvg17" class="areaSvgStadium" stroke-width="0" fill="#F3192B" stroke="#F3192B" points="178.7,0.5 178.7,26.8 187.5,26.8 187.5,35.5 226.9,35.6 226.9,0.5 	"/>
	<polygon id="idsvg18" class="areaSvgStadium" stroke-width="0" fill="#F3192B" stroke="#F3192B" points="230.1,0.1 230.1,26.4 237.6,26.4 237.6,36 278.3,36 278.3,26.4 285.9,26.4 285.9,0 	"/>
	<polygon id="idsvg19" class="areaSvgStadium" stroke-width="0" fill="#F3192B" stroke="#F3192B" points="289.1,0.1 289.1,35.5 330,35.5 330,26.4 337.9,26.4 337.9,0 	"/>
	<polygon id="idsvg20" class="areaSvgStadium" stroke-width="0" fill="#1999CE" stroke="#1999CE" points="341.1,0.3 341.1,35.5 376.9,35.5 376.9,26.7 385.4,26.7 385.4,0 	"/>
	<path id="idsvg21" class="areaSvgStadium" stroke-width="0" fill="#1999CE" stroke="#1999CE" d="M387.8,0.3c0,0,14-0.8,27.9,2.1s22.3,7,22.3,7l-14.2,32.3c0,0-8.1-3.3-18.3-4.9
		c-10.2-1.5-17.5-0.6-17.5-0.6L387.8,0.3z"/>
	<path id="idsvg22" class="areaSvgStadium" stroke-width="0" fill="#119B49" stroke="#119B49" d="M443.6,58.8c0.3-0.4,7.2,7.2,7.2,7.2L440,76l-5.8-4.9L443.6,58.8z"/>



	rightArea

	<path class="areaSvgStadium" fill="#F89938" stroke-width="0" stroke="#F89938" d="M456.5,64.5l14.4,19.2l8.1-3.6l2.8,6.1l24.1-10.3c0,0-3.7-10.4-9.4-19.2S481.7,39,481.7,39L456.5,64.5z"/>
	<polygon class="areaSvgStadium" fill="#F89938" stroke-width="0" stroke="#F89938" points="445.8,82.5 440,76 450.8,66 457.6,73.6 	"/>
	<path class="areaSvgStadium" fill="#F89938" stroke-width="0" stroke="#F89938" d="M412.3,108.3c0.3-0.5,19.4-18.4,19.4-18.4s3.5,4.1,3.6,3.7s25.2-18.8,25.2-18.8s9,11.5,12.6,24.3
		c3.6,12.9,3.6,27.3,3.6,27.3h-31.4v6.1h-27.7c0,0,1.2-8.1-0.3-13.9C416,112.8,412.3,108.3,412.3,108.3z"/>
	<path class="areaSvgStadium" fill="#F89938" stroke-width="0" stroke="#F89938" d="M474.6,92.6l33-13.3c0,0,7.5,17,8,25.8s0.9,23.4,0.9,23.4h-35.8c0,0,0.8-9.7-0.8-19.2
		C478.3,99.8,474.6,92.6,474.6,92.6z"/>
	<polygon class="areaSvgStadium" fill="#F89938" stroke-width="0" stroke="#F89938" points="490.1,131.2 516.2,131.2 516.2,178.1 480.9,178.1 480.9,139.2 489.8,139.2 	"/>
	<path class="areaSvgStadium" fill="#F89938" stroke-width="0" stroke="#F89938" d="M460.2,129.7c0,0.4,16.7,0,16.7,0v9.3h-17L460.2,129.7z"/>
	<polygon class="areaSvgStadium" fill="#F89938" stroke-width="0" stroke="#F89938" points="417.5,135.4 444.7,135.4 444.7,141.5 476.9,141.5 476.9,176.8 445.4,176.8 445.4,182.7
		417.3,182.8 	"/>
	<polygon class="areaSvgStadium" fill="#F89938" stroke-width="0" stroke="#F89938" points="460.2,179.3 477.6,179.3 477.6,188.9 460.3,188.9 	"/>
	<polygon class="areaSvgStadium" fill="#F89938" stroke-width="0" stroke="#F89938" points="480.7,189.4 490.3,189.4 490.3,181.2 516.2,181.2 516.2,241.5 490.2,241.5 490.2,233.7
		480.8,233.7 	"/>
	<polygon class="areaSvgStadium" fill="#F89938" stroke-width="0" stroke="#F89938" points="417.5,185.5 444.5,185.5 444.5,191.3 477.2,191.3 477.2,231.6 445.3,231.6 445.3,237.8
		417.7,237.8 	"/>
	<polygon class="areaSvgStadium" fill="#F89938" stroke-width="0" stroke="#F89938" points="460.3,234.3 476.9,234.3 476.9,243.9 460.5,243.9 	"/>
	<polygon class="areaSvgStadium" fill="#F89938" stroke-width="0" stroke="#F89938" points="417.6,240.4 445,240.4 445,246.3 477.1,246.3 477.1,281.1 445,281.1 445,287.4 417.5,287.4 	"/>
	<polygon class="areaSvgStadium" fill="#F89938" stroke-width="0" stroke="#F89938" points="480.8,244.4 516.1,244.4 516.1,291.7 490.3,291.7 490.3,283.8 480.5,283.8 	"/>
	<polygon class="areaSvgStadium" fill="#F89938" stroke-width="0" stroke="#F89938" points="459.7,283.9 477.3,283.9 477.3,294.2 459.8,294.2 	"/>
	<path class="areaSvgStadium" fill="#F89938" stroke-width="0" stroke="#F89938" d="M417.5,290.6h27.3v5.9h32.7c0,0-0.4,16.6-4.6,28.5s-12.7,22.8-12.7,22.8l-24.6-18.3l-3.2,3.6l-8.4-8.2
		l8.1-13.6l-14.8-5.4L417.5,290.6z"/>
	<path class="areaSvgStadium" fill="#F89938" stroke-width="0" stroke="#F89938" d="M480.8,294.5h35.8c0,0,0.1,13-2.2,26s-7.3,23.4-7.3,23.4l-33-14C474.1,329.9,482.1,310.4,480.8,294.5z"/>
	<path class="areaSvgStadium" fill="#F89938" stroke-width="0" stroke="#F89938" d="M481.6,337.1l-2.8,5.8l-7.9-3.7l-14.4,19.6l25.5,25.2c0,0,10.3-10.2,13.4-15.6s10.3-21.9,10.3-21.9
		L481.6,337.1z"/>
	<polygon class="areaSvgStadium" fill="#F89938" stroke-width="0" stroke="#F89938" points="444.7,339.8 458.8,350.8 452.1,358.2 439.2,345.4 "/>


	bottom area
	<path class="disableSection" fill="#1999CE" d="M432.1,377.4l10.7-7l9.3-7.1l25.5,24.8c0,0-9.9,9.9-18.9,14.8c-9,4.9-18.3,9.5-18.3,9.5l-9.9-24.3l6.4-3.4
		L432.1,377.4z"/>
	<path class="disableSection"  fill="#119B49" d="M108.8,318.4c0,0,8.4,5.9,13,5.8c4.6-0.1,15.1,0,15.1,0V352c0,0-14.3,1.2-27.4-2.8
		c-13.1-4-20.1-11.3-20.1-11.3L108.8,318.4z"/>
	<rect class="disableSection"  x="140" y="323.8" fill="#4D4D4F" width="22.9" height="28.3"/>
	<rect class="disableSection"  x="165.5" y="323.5" fill="#4D4D4F" width="22.9" height="28.3"/>
	<rect class="disableSection"  x="191.1" y="323.7" fill="#4D4D4F" width="34.4" height="28.3"/>
	<rect class="disableSection"  x="228.1" y="323.7" fill="#4D4D4F" width="15.2" height="27.2"/>
	<rect class="disableSection"  x="227.9" y="351.6" fill="#4D4D4F" width="15.4" height="13.8"/>
	<rect class="disableSection"  x="246.3" y="351.4" fill="#4D4D4F" width="23.3" height="8.2"/>
	<rect class="disableSection"  x="272.6" y="351.5" fill="#4D4D4F" width="15.6" height="13.6"/>
	<rect class="disableSection"  x="273.8" y="324.1" fill="#4D4D4F" width="14.2" height="26.7"/>
	<path class="disableSection"  fill="#4D4D4F" d="M246.7,324.6h4.6v6.8h14v-7h4.5c0,0,0,35.4,0,35.6s-23.4,0-23.4,0L246.7,324.6z"/>
	<rect class="disableSection"  x="290.4" y="323.7" fill="#4D4D4F" width="35.1" height="28.3"/>
	<rect class="disableSection"  x="327.7" y="323.7" fill="#4D4D4F" width="23.8" height="28.5"/>
	<rect class="disableSection"  x="353" y="323.7" fill="#4D4D4F" width="23" height="28.4"/>

	<path class="disableSection"  fill="#4D4D4F" d="M279.2,367.1h51.7v-14h18V367h8.4v-13.9h17.6V367h8.1v-13.9c0,0,11.3,0.8,18.2-0.5s16.8-5.4,18.9-6.7
		c2.1-1.3,8.6-6.4,8.6-6.4l8.9,10.8l2.6-1.8l8.7,8.2c0,0-8.6,8.8-19.2,13.9c-10.6,5.1-17.8,8.1-30.1,8.3c-12.2,0.2-120.4,0-120.4,0
		V367.1z"/>
	<path class="disableSection"  fill="#119B49" d="M379.3,351.5v-27.4c0,0,11.3,1.2,16.3-0.2c5-1.4,12.1-5.2,12.1-5.2l19.4,19.2c0,0-11.9,10.2-23,12.4
		C393.1,352.5,379.3,351.5,379.3,351.5z"/>
	<path class="disableSection"  fill="#1999CE" d="M388.2,386.7c0,0,12.6,0,18.8-1.1c6.2-1.1,17-5,17-5l14,33.2c0,0-11.1,5.3-23.7,6.9s-26.2,1.4-26.2,1.4
		L388.2,386.7z"/>
	<polygon class="disableSection"  fill="#1999CE" points="332.5,396.5 341,396.5 341,386.8 376.7,386.8 376.7,396.7 384.6,396.7 384.6,422.9 332.7,422.9
		"/>
	<rect class="disableSection"  x="287.6" y="387" fill="#4D4D4F" width="34.8" height="35.5"/>
	<rect class="disableSection"  x="240.5" y="387.2" fill="#F3EC19" width="34.8" height="35.5"/>
	<rect class="disableSection"  x="227.4" y="397.1" fill="#F3EC19" width="10.6" height="26"/>
	<polygon class="disableSection"  fill="#F3EC19" points="178.9,396.5 186.5,396.5 186.5,387.1 224.5,387.1 224.5,422.8 178.8,422.8 	"/>
	<polygon class="disableSection"  fill="#1999CE" points="131.4,396.4 139.5,396.4 139.5,387.2 175.5,387.2 175.5,423 131.6,423 	"/>
	<path class="disableSection"  fill="#1999CE" d="M92.8,380.6c0,0,9.7,3.9,18.3,5.2c8.7,1.4,16.9,1,16.9,1l0.1,35.9c0,0-9.7,1.4-26.2-2.1s-23-7.1-23-7.1
		L92.8,380.6z"/>
	<path class="disableSection"  fill="#1999CE" d="M64.9,363.2c0,0,4.4,4.4,9.3,7.5c4.9,3.2,10.1,5.9,10.1,5.9l-4.8,8.8l6.9,3L76,412.1c0,0-6.4-1.6-20-10.1
		s-16.6-13.7-16.6-13.7L64.9,363.2z"/>
	<path class="disableSection" fill="#4D4D4F" stroke-width="0" stroke="#4D4D4F" d="M88,339.8c0,0,11.5,9.3,20.7,11.5s24.6,2.7,24.6,2.7l0.1,13.1l8.4-0.1v-13.6h17.4v13.5h8.2v-13.5h17.9v13.8
		h51.9v12H116.7c0,0-12.9,0-27.3-7.2C75,364.6,67.8,356,67.8,356l9.7-9.5l1.4,1.4L88,339.8z"/>

	left area
	<polygon class="areaSvgStadium" fill="#FFDA03" stroke-width="0" stroke="#FFDA03" points="0.3,135.4 26.1,135.4 26.1,143.3 35.4,143.3 35.4,178 0.3,178 	"/>
	<rect class="areaSvgStadium" x="39.5" y="132.4" fill="#F89938" stroke-width="0" stroke="#F89938" width="16.9" height="6"/>
	<polygon class="areaSvgStadium" fill="#F89938" stroke-width="0" stroke="#F89938" points="39.8,141.6 71.5,141.6 71.5,135.4 98.7,135.4 98.7,182 71.4,182 71.4,176 39.7,176 	"/>
	<polygon class="areaSvgStadium" fill="#F89938" stroke-width="0" stroke="#F89938" points="71.4,191.2 71.4,185.3 98.8,185.3 98.8,237.5 71.6,237.5 71.6,231.3 39.6,231.3 39.6,191.7 	"/>
	<rect class="areaSvgStadium" x="38.9" y="178.5" fill="#F89938" stroke-width="0" stroke="#F89938" width="17.6" height="10.6"/>
	<rect class="areaSvgStadium" x="38.9" y="234.1" fill="#F89938" stroke-width="0" stroke="#F89938" width="17.5" height="9.9"/>
	<rect class="areaSvgStadium" x="38.8" y="283.7" fill="#F89938" stroke-width="0" stroke="#F89938" width="17.6" height="10.6"/>
	<path class="areaSvgStadium" fill="#F89938" stroke-width="0" stroke="#F89938" d="M39.3,246.7c0,0,32,0.3,32,0c0-0.3,0-6.2,0-6.2h27.4v47.4H71.4v-6.7H39.7L39.3,246.7z"/>
	<path class="areaSvgStadium" fill="#F89938" stroke-width="0" stroke="#F89938" d="M71.2,290.5h27.6c0,0-1.2,9.9,0.4,14.1c1.6,4.2,5.1,9.3,5.1,9.3l-20,19.7l-6.5-9.3l-26.9,15
		c0,0-7-10.2-8.8-19.9c-1.9-9.7-2.7-22.6-2.7-22.6l31.9,0.3L71.2,290.5z"/>
	<polygon class="areaSvgStadium" fill="#F89938" stroke-width="0" stroke="#F89938" points="52,341.6 52.8,343.1 55.6,342.1 61.5,349.5 66.9,355.2 77.1,345.6 72.4,339.9 81.6,332.4
		77.1,326.8 	"/>
	<path class="areaSvgStadium" fill="#F89938" stroke-width="0" stroke="#F89938" d="M46.3,339.4l5.9,9.8l7.4,9.2l-25.2,25.4c0,0-6.8-6.8-12.7-15.5s-11.2-21.4-11.2-21.4l23.7-9.8l3,6.1
		L46.3,339.4z"/>
	<path class="areaSvgStadium" fill="#F89938" stroke-width="0" stroke="#F89938" d="M8.7,343.8c0.1,0.2,33-13.6,33-13.6s-4.2-9.4-5.2-17.8c-0.9-8.3-1.5-17.6-1.5-17.6H0.4
		C0.4,294.8,0.1,330.6,8.7,343.8z"/>
	<polygon class="areaSvgStadium" fill="#F89938" stroke-width="0" stroke="#F89938" points="0.2,244.6 35.7,244.6 35.7,283 26.2,283 26.2,291 0,291 	"/>
	<polygon class="areaSvgStadium" fill="#F89938" stroke-width="0" stroke="#F89938" points="0.3,181.5 26.3,181.5 26.3,189.1 35.8,189.1 35.8,233.4 26.5,233.4 26.5,240.9 0,240.9 	"/>
	<polygon class="areaSvgStadium" fill="#F89938" stroke-width="0" stroke="#F89938" points="0.3,135.4 26.1,135.4 26.1,143.3 35.4,143.3 35.4,178 0.3,178 	"/>
	<path class="areaSvgStadium" fill="#4D4D4F" stroke-width="0" stroke="#4D4D4F" d="M62,67.5c-0.3,0.3-6.6,9-9.4,13.4c-2.8,4.4-6.4,13.6-6.4,13.6l16.7,6.3l-0.9,2.3l-17.4-5.7
		c0,0-3.2,8.6-4.2,13.8s-0.3,17-0.3,17h58.2c0,0,0-6.6,1.4-10.2c1.4-3.6,4.1-8.8,4.1-8.8L62,67.5z"/>
	<path class="areaSvgStadium" fill="#4D4D4F" stroke-width="0" stroke="#4D4D4F" d="M10.7,75.2c-0.1-0.1,4.5-10.3,9.4-17.1s14.3-18.7,14.3-18.7l25.1,25.1c0,0-5.2,6.2-7.3,9.4
		C50,77.1,46,83.4,46,83.4L37.6,80L34,85.7L10.7,75.2z"/>
	<path class="areaSvgStadium" fill="#4D4D4F" stroke-width="0" stroke="#4D4D4F" d="M9.3,78.9l32.4,13.5c0,0-2.8,8-4.1,14s-1.9,13.8-1.9,13.8h-9.1v7.7H0c0,0,0-14.9,2.4-25.6
		S9.3,78.9,9.3,78.9z"/>
</g>

<g id="Layer_3">
	<rect x="123.2" y="124.1" fill="#6FBE44" width="268.9" height="173.7"/>
	<g>
		<polyline fill="none" stroke="#FFFFFF" points="128.7,159.7 175.8,159.7 175.8,265.3 129.6,265.3 		"/>
		<polyline fill="none" stroke="#FFFFFF" points="129.6,186.6 145.6,186.6 145.6,237.7 130.1,237.7 		"/>
		<path fill="none" stroke="#FFFFFF" d="M177.2,188.8c0,0,11.1,6,11.1,22c0,15.9-12.5,24.1-12.5,24.1"/>
	</g>
	<line fill="none" stroke="#FFFFFF" x1="257.2" y1="129" x2="257.2" y2="292.2"/>
	<g>
		<polyline fill="none" stroke="#FFFFFF" points="387.3,159.7 340.1,159.7 340.1,265.3 386.4,265.3 		"/>
		<polyline fill="none" stroke="#FFFFFF" points="386.4,186.6 370.4,186.6 370.4,237.7 385.9,237.7 		"/>
		<path fill="none" stroke="#FFFFFF" d="M338.8,188.8c0,0-11.1,6-11.1,22c0,15.9,12.5,24.1,12.5,24.1"/>
	</g>
	<rect x="128.4" y="129" fill="none" stroke="#FFFFFF" width="258.7" height="163.3"/>
</g>

<!--<g id="Layer_4">
	<text transform="matrix(1 0 0 1 55.6193 37.5948)" fill="#FFFFFF" font-family="'MyriadPro-Regular'" font-size="12.36">213</text>
	<text transform="matrix(1 0 0 1 98.1926 21.1148)" fill="#FFFFFF" font-family="'MyriadPro-Regular'" font-size="12.36">214</text>
	<text transform="matrix(1 0 0 1 98.1931 72.6148)" fill="#FFFFFF" font-family="'MyriadPro-Regular'" font-size="12.36">111</text>
	<text transform="matrix(1 0 0 1 148.6623 72.2705)" fill="#FFFFFF" font-family="'MyriadPro-Regular'" font-size="12.36">112</text>
	<text transform="matrix(1 0 0 1 199.134 73.3018)" fill="#FFFFFF" font-family="'MyriadPro-Regular'" font-size="12.36">113</text>
	<text transform="matrix(1 0 0 1 249.9455 72.9585)" fill="#FFFFFF" font-family="'MyriadPro-Regular'" font-size="12.36">114</text>
	<text transform="matrix(1 0 0 1 143.5124 20.4287)" fill="#FFFFFF" font-family="'MyriadPro-Regular'" font-size="12.36">215</text>
	<text transform="matrix(1 0 0 1 193.6398 21.1148)" fill="#FFFFFF" font-family="'MyriadPro-Regular'" font-size="12.36">216</text>
	<text transform="matrix(1 0 0 1 249.6027 20.7705)" fill="#FFFFFF" font-family="'MyriadPro-Regular'" font-size="12.36">217</text>
	<text transform="matrix(1 0 0 1 302.133 72.6148)" fill="#FFFFFF" font-family="'MyriadPro-Regular'" font-size="12.36">115</text>
	<text transform="matrix(1 0 0 1 349.8566 72.9585)" fill="#FFFFFF" font-family="'MyriadPro-Regular'" font-size="12.36">116</text>
	<text transform="matrix(1 0 0 1 398.9523 72.6148)" fill="#FFFFFF" font-family="'MyriadPro-Regular'" font-size="12.36">117</text>
	<text transform="matrix(1 0 0 1 304.8791 20.7705)" fill="#FFFFFF" font-family="'MyriadPro-Regular'" font-size="12.36">218</text>
	<text transform="matrix(1 0 0 1 352.9455 20.7705)" fill="#FFFFFF" font-family="'MyriadPro-Regular'" font-size="12.36">219</text>
	<text transform="matrix(1 0 0 1 399.9826 20.7715)" fill="#FFFFFF" font-family="'MyriadPro-Regular'" font-size="12.36">220</text>
	<text transform="matrix(1 0 0 1 440.8391 38.6245)" fill="#FFFFFF" font-family="'MyriadPro-Regular'" font-size="12.36">221</text>
	<text transform="matrix(1 0 0 1 472.0822 68.1509)" fill="#FFFFFF" font-family="'MyriadPro-Regular'" font-size="12.36">222</text>
	<text transform="matrix(1 0 0 1 488.2189 112.0987)" fill="#FFFFFF" font-family="'MyriadPro-Regular'" font-size="12.36">223</text>
	<text transform="matrix(1 0 0 1 489.2482 158.4478)" fill="#FFFFFF" font-family="'MyriadPro-Regular'" font-size="12.36">224</text>
	<text transform="matrix(1 0 0 1 488.5627 215.0972)" fill="#FFFFFF" font-family="'MyriadPro-Regular'" font-size="12.36">225</text>
	<text transform="matrix(1 0 0 1 438.093 112.7847)" fill="#FFFFFF" font-family="'MyriadPro-Regular'" font-size="12.36">118</text>
	<text transform="matrix(1 0 0 1 437.7492 158.4483)" fill="#FFFFFF" font-family="'MyriadPro-Regular'" font-size="12.36">119</text>
	<text transform="matrix(1 0 0 1 438.093 215.4409)" fill="#FFFFFF" font-family="'MyriadPro-Regular'" font-size="12.36">120</text>
	<text transform="matrix(1 0 0 1 437.4055 271.4038)" fill="#FFFFFF" font-family="'MyriadPro-Regular'" font-size="12.36">121</text>
	<text transform="matrix(1 0 0 1 488.2199 271.4048)" fill="#FFFFFF" font-family="'MyriadPro-Regular'" font-size="12.36">226</text>
	<text transform="matrix(1 0 0 1 437.0617 317.7544)" fill="#FFFFFF" font-family="'MyriadPro-Regular'" font-size="12.36">121</text>
	<text transform="matrix(1 0 0 1 389.6828 341.7876)" fill="#FFFFFF" font-family="'MyriadPro-Regular'" font-size="12.36">123</text>
	<text transform="matrix(1 0 0 1 487.1896 318.4419)" fill="#FFFFFF" font-family="'MyriadPro-Regular'" font-size="12.36">226</text>
	<text transform="matrix(1 0 0 1 472.4269 359.6411)" fill="#FFFFFF" font-family="'MyriadPro-Regular'" font-size="12.36">228</text>
	<text transform="matrix(1 0 0 1 401.0129 408.0503)" fill="#FFFFFF" font-family="'MyriadPro-Regular'" font-size="12.36">230</text>
	<text transform="matrix(1 0 0 1 349.1691 409.0816)" fill="#FFFFFF" font-family="'MyriadPro-Regular'" font-size="12.36">231</text>
	
		<text transform="matrix(0.8439 -0.5365 0.5365 0.8439 445.6269 397.195)" fill="#FFFFFF" font-family="'MyriadPro-Regular'" font-size="12.36">229</text>
	<text transform="matrix(1 0 0 1 145.2292 408.7378)" fill="#FFFFFF" font-family="'MyriadPro-Regular'" font-size="12.36">203</text>
	<text transform="matrix(1 0 0 1 97.5061 408.7388)" fill="#FFFFFF" font-family="'MyriadPro-Regular'" font-size="12.36">204</text>
	<text transform="matrix(1 0 0 1 107.8063 341.1021)" fill="#FFFFFF" font-family="'MyriadPro-Regular'" font-size="12.36">105</text>
	
		<text transform="matrix(0.8702 0.4927 -0.4927 0.8702 55.4653 388.1672)" fill="#FFFFFF" font-family="'MyriadPro-Regular'" font-size="12.36">205</text>
	<text transform="matrix(1 0 0 1 60.0832 314.3218)" fill="#FFFFFF" font-family="'MyriadPro-Regular'" font-size="12.36">106</text>
	<text transform="matrix(1 0 0 1 59.0529 267.6284)" fill="#FFFFFF" font-family="'MyriadPro-Regular'" font-size="12.36">107</text>
	<text transform="matrix(1 0 0 1 59.0534 215.0992)" fill="#FFFFFF" font-family="'MyriadPro-Regular'" font-size="12.36">108</text>
	<text transform="matrix(1 0 0 1 59.3967 161.1953)" fill="#FFFFFF" font-family="'MyriadPro-Regular'" font-size="12.36">109</text>
	<text transform="matrix(1 0 0 1 23.6896 361.7017)" fill="#FFFFFF" font-family="'MyriadPro-Regular'" font-size="12.36">206</text>
	<text transform="matrix(1 0 0 1 8.2399 318.4419)" fill="#FFFFFF" font-family="'MyriadPro-Regular'" font-size="12.36">207</text>
	<text transform="matrix(1 0 0 1 7.2101 267.2847)" fill="#FFFFFF" font-family="'MyriadPro-Regular'" font-size="12.36">208</text>
	<text transform="matrix(1 0 0 1 6.8664 214.7554)" fill="#FFFFFF" font-family="'MyriadPro-Regular'" font-size="12.36">209</text>
	<text transform="matrix(1 0 0 1 7.2101 160.8521)" fill="#FFFFFF" font-family="'MyriadPro-Regular'" font-size="12.36">210</text>
</g>-->

<g id="Layer_5">
	<ellipse fill-rule="evenodd" clip-rule="evenodd" stroke="#231F20" stroke-width="0.2" cx="258.7" cy="208" rx="18.5" ry="30.6"/>
	
		<ellipse fill-rule="evenodd" clip-rule="evenodd" fill="#FFFFFF" stroke="#231F20" stroke-width="0.2" cx="258.7" cy="207.7" rx="17.6" ry="27.9"/>
	<g>
		<defs>
			<ellipse id="SVGID_1_" cx="258.7" cy="206.7" rx="16.5" ry="26.1"/>
		</defs>
		<clipPath id="SVGID_2_">
			<use xlink:href="#SVGID_1_"  overflow="visible"/>
		</clipPath>
		<g clip-path="url(#SVGID_2_)">
			<rect x="255.8" y="176.4" fill-rule="evenodd" clip-rule="evenodd" width="6.3" height="62.7"/>
			<rect x="266.8" y="176.4" fill-rule="evenodd" clip-rule="evenodd" width="6.3" height="62.7"/>
			<rect x="244.4" y="176.4" fill-rule="evenodd" clip-rule="evenodd" width="6.3" height="62.7"/>
		</g>
	</g>
	<path fill-rule="evenodd" clip-rule="evenodd" fill="#FFFFFF" d="M273.3,208l0-14.5c-13.6-5.9-28.9-0.2-28.9-0.2L244,208
		c0,0,13.9-13.8,29.4,0"/>
	<path fill-rule="evenodd" clip-rule="evenodd" fill="#F2BA27" d="M242,203.7c0,0,15.6-8.6,33.4,0.1l0.1,4
		c-18.2-14.7-33.7-0.4-33.7-0.4L242,203.7z"/>
	<ellipse fill-rule="evenodd" clip-rule="evenodd" fill="#FFFFFF" cx="258.7" cy="220.9" rx="6.9" ry="8.4"/>
	<path fill-rule="evenodd" clip-rule="evenodd" d="M261.9,216.4c-1,0.9-1.3-0.3-1.3-0.6c0.1-0.1,0.2-0.3,0.2-0.4
		c0-0.3-0.3-0.6-0.6-0.6c-0.3,0-0.6,0.3-0.6,0.6c0,0.1,0,0.2,0.1,0.3c-1,1.7-1.8,0.3-2-0.1c0-0.1,0.1-0.2,0.1-0.3
		c0-0.3-0.3-0.6-0.6-0.6s-0.6,0.3-0.6,0.6c0,0.2,0.1,0.3,0.2,0.5c-0.1,0.3-0.3,1.4-1.3,0.6c-1.2-1-1,0-0.7,0.5
		c0.2,0.5,0.9,1.5,0.9,1.5c0,0,0.1,0,0.1,0l0.1-0.1c0.7-0.2,3.3-0.9,6,0.1c0,0,0.6-1,0.9-1.5C262.9,216.4,263.1,215.3,261.9,216.4z"
		/>
	<ellipse fill-rule="evenodd" clip-rule="evenodd" fill="#FFFFFF" cx="258.7" cy="229.7" rx="6.1" ry="3.8"/>
	<path fill-rule="evenodd" clip-rule="evenodd" d="M258.7,232.1c-5.3-4.2-5-7.3-5-7.3s0-2.4,0-3.5c0-1.1,1.3-1.3,1.3-1.3h3.1h1.2
		h3.1c0,0,1.3,0.1,1.3,1.3c0,1.1,0,3.5,0,3.5S264,227.9,258.7,232.1"/>
	<path fill-rule="evenodd" clip-rule="evenodd" fill="#FFFFFF" d="M261.7,222.9c-0.3-0.5-0.9-0.3-0.9-0.3c-0.6,0.3-0.3,1.2-0.3,1.2
		c0,0,0,0,0,0c0,0,0.1,0.2,0.4,1.1c0.3,0.8-0.2,0.7-0.2,0.7c-0.6,0-0.7-0.6-0.7-0.6c-0.2-1.8-0.6-2.8-0.6-2.8c-0.6-0.8-1.7-1-1.7-1
		c-0.9-0.1-1.4-0.4-1.4-0.4l-0.3,0c0.1,0.7,0.4,0.9,0.4,0.9l0.2,1.3l0.7,0.6l-0.2,0.1c-0.2-0.1-0.5-0.2-0.7-0.2l0.1,0
		c-0.2-0.2-0.3-0.2-0.3-0.2c-0.1,0.1-0.1,0.2-0.2,0.2c-0.7,0.1-1.2,0.5-1.2,0.5l0.1,0.3c0.4-0.3,1-0.4,1-0.4
		c-0.3,0.8,0.3,1.3,0.3,1.3l0.5,0l0-0.4c-0.4-0.3-0.4-0.7-0.4-0.7l0.6,0.2l0.7,0.5l0.1,0.6c-0.6,0.6-0.4,1.6-0.4,1.6
		c-0.8,0.4-1.1,0.3-1.1,0.3c-0.4,0.1-0.5,0.4-0.5,0.4l0.1,0.4l0.6-0.1c0.1-0.2,0.7-0.3,0.7-0.3l0.9-0.2c0.4-0.3,0.8-0.4,0.8-0.4
		c0.2,0.6,0.7,1,0.7,1c0.3,0.5,0,0.8,0,0.8c-0.2,0.5-0.1,1.1-0.1,1.1l0.7-0.2l-0.1-0.7c0.1-0.3,0.6-0.5,0.6-0.5l-0.1-0.4
		c0-0.6,0.4-1.2,0.4-1.2c0.5-0.6,0.4-0.9,0.4-0.9c0.3-0.8,0-1.4,0-1.4c-0.3-0.6-0.4-1.2-0.4-1.2c-0.2-0.5,0.3-0.7,0.3-0.7
		c-0.2,0.6,0.5,0.9,0.5,0.9C262,223.6,261.7,222.9,261.7,222.9z"/>
	<g>
		<path fill-rule="evenodd" clip-rule="evenodd" d="M244.7,194.9l1.3-0.5v5.5c0,0-0.2,1.3-1.8,1.3v-0.9c0,0,0.5,0,0.5-0.3
			C244.7,199.6,244.7,194.9,244.7,194.9z"/>
		<path fill-rule="evenodd" clip-rule="evenodd" d="M246.8,194.2l1.3-0.4v5c0,0,0,0.3,0.4,0.4c0.4,0,0.4-0.2,0.4-0.4
			c0-0.2,0-5.2,0-5.2l1.3-0.4v5.2c0,0,0,1.6-1.9,1.6c-0.6,0-1.4-0.3-1.4-1C246.8,198.3,246.8,194.2,246.8,194.2z"/>
		<polygon fill-rule="evenodd" clip-rule="evenodd" points="250.8,193.1 252.1,192.8 252.7,197.2 253.1,192.6 254.5,192.4 
			253.8,198.7 251.6,199.1 		"/>
		<polygon fill-rule="evenodd" clip-rule="evenodd" points="255.1,192.4 257.5,192.3 257.5,193.4 256.4,193.4 256.4,194.8 
			257.5,194.8 257.5,195.8 256.4,195.8 256.4,197.4 257.6,197.4 257.6,198.5 255.1,198.6 		"/>
		<polygon fill-rule="evenodd" clip-rule="evenodd" points="258.3,192.3 259.4,192.3 260.5,195.2 260.5,192.3 261.6,192.3 
			261.6,198.5 260.4,198.5 259.4,195.7 259.4,198.5 258.3,198.5 		"/>
		<polygon fill-rule="evenodd" clip-rule="evenodd" points="262.3,192.4 265.4,192.8 265.4,193.8 264.6,193.8 264.6,198.8 
			263.2,198.6 263.2,193.5 262.2,193.4 		"/>
		<path fill-rule="evenodd" clip-rule="evenodd" d="M266.1,192.9l1.3,0.3l0,4.7c0,0,0,0.9,0.5,0.9c0,0,0.3,0,0.4-0.4
			c0-0.5,0-4.9,0-4.9l1.2,0.2l0,4.9c0,0,0,0.9-1.1,1c0,0-2.2,0.3-2.2-2.1L266.1,192.9z"/>
		<path fill-rule="evenodd" clip-rule="evenodd" d="M272,196.2l1.2,0.3l0-0.9c0,0-0.3-1.4-2.3-1.5c0,0-0.8,0.2-0.8,0.7v1.2
			c0,0,0.1,0.5,0.6,1c0.3,0.3,1.3,1.3,1.3,1.3s0.2,0.2,0.2,0.6c0,0.4,0,0.8,0,0.8s0,0.2-0.4,0.2c-0.4,0-0.4-0.3-0.4-0.4
			c0-0.1,0-1,0-1l-1.1-0.4v1.2c0,0,0.2,1.4,1.8,1.6h0.7c0,0,0.5,0,0.5-0.7v-1.6c0,0,0.1-0.1-1.5-1.8c0,0-0.4-0.4-0.4-0.7
			c0-0.3,0-0.8,0-0.8s0.1-0.3,0.6-0.1C272.1,195.2,272,196.2,272,196.2z"/>
	</g>
</g>

<g id="Layer_6" display="none">
	<path display="inline" fill="#231F20" d="M239.9,219.2c0,16.1,7.7,29.3,17.2,29.3c9.5,0,17.2-13.1,17.2-29.3
		c0-16.1-7.7-29.3-17.2-29.3C247.6,189.9,239.9,203,239.9,219.2z"/>
	<path display="inline" fill="#FDBD10" d="M240.2,219.2c0-16,7.6-29,16.9-29c9.3,0,16.9,13,16.9,29c0,16-7.6,29-16.9,29
		C247.8,248.1,240.2,235.1,240.2,219.2z"/>
	<path display="inline" fill="#231F20" d="M241.6,219.2c0,15.1,7,27.4,15.5,27.4c8.5,0,15.5-12.3,15.5-27.4c0-15.1-7-27.4-15.5-27.4
		C248.6,191.8,241.6,204.1,241.6,219.2z"/>
	<path display="inline" fill="#FDBD10" d="M261.6,220.1c0.4-1.4,0.9-3.2,1-3.3c-0.1-0.1-0.6-0.4-0.8-0.5c-0.1,0.2-0.4,0.8-0.4,0.8
		l-1.3-0.1c0,0,0-1,0-1.2h-0.9c0,0.2,0,1,0,1h-1.5c0,0,0-0.9,0-1.2h-1c0,0.2,0,1.2,0,1.2h-1.5c0,0,0-0.8,0-1h-0.9c0,0.2,0,1.2,0,1.2
		l-1.3,0.1c0,0-0.3-0.6-0.4-0.8c-0.2,0.1-0.7,0.4-0.8,0.5c0,0.1,0.6,2,1,3.3c1.3-0.4,2.8-0.7,4.5-0.7
		C258.8,219.4,260.4,219.7,261.6,220.1z"/>
	<path display="inline" fill="#FFFFFF" d="M241.9,218.6c0,0.2,0,0.4,0,0.5c0,5.1,0.8,9.8,2.2,13.9v-15.6
		C243.3,217.8,242.6,218.2,241.9,218.6z"/>
	<path display="inline" fill="#FFFFFF" d="M252.7,221.6L252.7,221.6l-1.5-5l1.2-0.8c0,0,0.4,0.8,0.5,0.9c0.1,0,0.7,0,0.9-0.1
		c0-0.2,0-1.2,0-1.2h0.5v-0.8c-1.7,0.1-3.3,0.4-4.9,0.8v27.1c1.5,1.5,3.1,2.6,4.9,3.2v-8.2c-0.3-0.2-0.7-0.3-1-0.4
		c-0.3-0.1-0.7-0.3-1-0.5l-0.1,0l0.2-1c0.4-1.7,0.6-3,0.6-4.9c0-1.8-0.5-4.5-0.5-4.5l0-0.1l0.1,0c0,0,0.9-0.4,1.7-0.8v-2.7
		C253.4,222.3,252.8,222,252.7,221.6z"/>
	<path display="inline" fill="#FFFFFF" d="M259.8,214.7v0.8h0.5c0,0,0,1,0,1.2c0.2,0,0.7,0,0.9,0.1c0.1-0.1,0.5-0.9,0.5-0.9l1.2,0.8
		l-1.5,5l0,0c0,0.4-0.7,0.7-1.7,0.9v2.7c0.8,0.4,1.7,0.8,1.7,0.8l0.1,0l0,0.1c0,0-0.5,2.8-0.5,4.5c0,2,0.3,3.2,0.6,4.9l0.2,1
		l-0.1,0.1c-0.4,0.2-0.7,0.3-1,0.5c-0.3,0.1-0.6,0.3-1,0.4v8.2c1.7-0.6,3.4-1.7,4.9-3.2v-27.1C263.1,215.1,261.5,214.8,259.8,214.7z
		"/>
	<path display="inline" fill="#FFFFFF" d="M272.3,219.2c0-0.2,0-0.4,0-0.5c-0.7-0.4-1.4-0.8-2.2-1.1v15.6
		C271.5,229,272.3,224.2,272.3,219.2z"/>
	<path display="inline" fill="#FFFFFF" d="M272.3,217.9c-0.1-4.4-0.8-8.6-2-12.2c-3.9,1.9-8.4,2.9-13.2,2.9c-4.8,0-9.3-1.1-13.2-2.9
		c-1.2,3.6-1.9,7.8-2,12.2c4.3-2.5,9.5-4,15.2-4C262.8,214,268,215.4,272.3,217.9z"/>
	<path display="inline" fill="#FFFFFF" d="M259.8,192.5V208c1.7-0.1,3.3-0.4,4.9-0.8v-11.5C263.2,194.2,261.6,193.1,259.8,192.5z"/>
	<path display="inline" fill="#FFFFFF" d="M249.5,195.7v11.5c1.6,0.4,3.2,0.7,4.9,0.8v-15.5C252.6,193.1,251,194.2,249.5,195.7z"/>
	<path display="inline" fill="#231F20" d="M260.7,218.3c0-0.3,0.2-0.5,0.5-0.5c0.3,0,0.5,0.2,0.5,0.5c0,0.3-0.2,0.5-0.5,0.5
		C260.9,218.7,260.7,218.5,260.7,218.3"/>
	<path display="inline" fill="#231F20" d="M258.9,217.9c0-0.3,0.2-0.5,0.5-0.5c0.3,0,0.5,0.2,0.5,0.5c0,0.3-0.2,0.5-0.5,0.5
		C259.2,218.4,258.9,218.2,258.9,217.9"/>
	<path display="inline" fill="#231F20" d="M256.6,217.8c0-0.3,0.2-0.5,0.5-0.5c0.3,0,0.5,0.2,0.5,0.5c0,0.3-0.2,0.5-0.5,0.5
		C256.8,218.3,256.6,218.1,256.6,217.8"/>
	<path display="inline" fill="#231F20" d="M252.5,218.3c0-0.3,0.2-0.5,0.5-0.5c0.3,0,0.5,0.2,0.5,0.5c0,0.3-0.2,0.5-0.5,0.5
		C252.7,218.7,252.5,218.5,252.5,218.3"/>
	<path display="inline" fill="#231F20" d="M254.3,217.9c0-0.3,0.2-0.5,0.5-0.5c0.3,0,0.5,0.2,0.5,0.5c0,0.3-0.2,0.5-0.5,0.5
		C254.5,218.4,254.3,218.2,254.3,217.9"/>
	<path display="inline" fill="#FDBD10" d="M257.1,223.5c0.1,0.1,0.7,0.6,0.7,0.6c0.4,0.3,0.8,0.7,1.4,1c0.7,0.4,1.8,0.9,2.1,1.1
		c-0.1,0.5-0.5,2.9-0.5,4.5c0,0,0,0,0,0.1c0,2,0.3,3.2,0.6,5c0,0,0.1,0.6,0.2,0.8c-0.3,0.2-0.6,0.3-0.9,0.4
		c-0.5,0.2-1.1,0.5-1.7,0.9c-0.7,0.4-1.6,1.2-1.9,1.5c-0.3-0.3-1.2-1-1.9-1.5c-0.6-0.4-1.2-0.6-1.7-0.9c-0.3-0.1-0.6-0.3-0.9-0.4
		c0-0.2,0.2-0.8,0.2-0.8c0.4-1.7,0.6-3,0.6-5c0,0,0,0,0,0c0-1.6-0.4-3.9-0.5-4.5c0.3-0.2,1.4-0.6,2.1-1.1c0.6-0.4,1-0.7,1.4-1
		C256.4,224.1,257,223.6,257.1,223.5C257.1,223.5,257.1,223.5,257.1,223.5z"/>
	<path display="inline" fill="#231F20" d="M244.9,207.6v5.6c0,0.2,0,0.4,0,0.5c0,0.1,0,0.3-0.1,0.4c0,0.1-0.1,0.2-0.2,0.3
		c-0.1,0.1-0.2,0.1-0.3,0.2c-0.1,0-0.1,0-0.2,0c-0.1,0-0.1-0.1-0.1-0.2c0-0.1-0.1-0.2-0.1-0.4c0-0.2,0-0.4,0-0.6v-0.6l-0.2,0l-0.1,0
		l-0.1,0l-0.1,0v0.9c0,0.2,0,0.4,0,0.7c0,0.3,0.1,0.5,0.2,0.7c0.1,0.2,0.2,0.4,0.3,0.5c0.1,0.1,0.3,0.1,0.5,0
		c0.1-0.1,0.3-0.1,0.4-0.3c0.1-0.1,0.2-0.3,0.3-0.5c0.1-0.2,0.2-0.5,0.2-0.8c0.1-0.3,0.1-0.7,0.1-1.1v-5.3l-0.2-0.1l-0.1,0l-0.1,0
		L244.9,207.6L244.9,207.6z"/>
	<path display="inline" fill="#231F20" d="M246.5,208.1v4.4c0,0.3,0,0.6,0.1,0.9c0.1,0.3,0.1,0.5,0.2,0.7c0.1,0.2,0.3,0.3,0.4,0.4
		c0.2,0.1,0.4,0.1,0.7,0c0.2-0.1,0.5-0.2,0.6-0.3c0.2-0.1,0.3-0.3,0.5-0.5c0.1-0.2,0.2-0.4,0.3-0.7c0.1-0.3,0.1-0.5,0.1-0.7v-3.3
		l-0.2,0l-0.1,0l-0.1,0l-0.2,0v3.4c0,0.3,0,0.5-0.1,0.7c0,0.2-0.1,0.3-0.2,0.5c-0.1,0.1-0.2,0.2-0.3,0.3c-0.1,0.1-0.2,0.1-0.3,0.1
		c-0.1,0-0.2,0-0.3,0c-0.1,0-0.2-0.1-0.3-0.2c-0.1-0.1-0.2-0.3-0.2-0.5c0-0.2-0.1-0.5-0.1-0.8v-4l-0.2,0l-0.1,0l-0.1,0L246.5,208.1
		L246.5,208.1z"/>
	<path display="inline" fill="#231F20" d="M250.1,209.1l0.3,1.2l0.3,1.1l0.3,1.1l0.3,1.1l0.2,0l0.1,0l0.1,0l0.2,0l0.3-1.1l0.3-1
		l0.3-0.9l0.3-0.9l-0.2,0l-0.1,0l-0.1,0l-0.2,0l-0.3,0.8l-0.3,0.8l-0.3,0.9c0,0-0.2,0.6-0.2,0.8c-0.1-0.2-0.2-0.7-0.2-0.7l-0.3-0.9
		l-0.3-0.9l-0.3-1l-0.2,0l-0.1,0L250.1,209.1L250.1,209.1z"/>
	<path display="inline" fill="#231F20" d="M254,209.7v3.5l0.7-0.1l0.7,0l0.6,0v-0.5l-1,0.1c0,0-0.4,0-0.5,0c0-0.1,0-1,0-1
		c0.1,0,0.9,0,0.9,0l0.3,0v-0.5h-0.3l-0.5,0c0,0-0.4,0-0.4,0c0-0.1,0-0.9,0-1c0.1,0,0.5,0,0.5,0l0.5,0l0.4,0v-0.5l-0.7,0l-0.7,0
		L254,209.7L254,209.7z"/>
	<path display="inline" fill="#231F20" d="M259.4,209.7h-0.1l-0.1,0l-0.1,0l-0.2,0c0,0,0,2.3,0,2.6c-0.1-0.2-0.4-0.6-0.4-0.6
		l-0.4-0.7l-0.4-0.6l-0.5-0.6h-0.6v3.3h0.6c0,0,0-2.2,0-2.5c0.1,0.1,0.4,0.5,0.4,0.5l0.4,0.6l0.4,0.7l0.5,0.7h0.2l0.1,0l0.1,0l0.2,0
		L259.4,209.7L259.4,209.7z"/>
	<path display="inline" fill="#231F20" d="M263,209.2l-0.7,0.1l-0.7,0.1l-0.7,0.1c-0.2,0-0.5,0.1-0.7,0.1l0,0v0.5l0.3,0
		c0,0,0.2,0,0.2,0l0.1,0c0,0,0.2,0,0.2,0l0.1,0l0,0l0.2,0c0,0,0,0,0,0c0,0.1,0,3.4,0,3.4l0.3,0l0.1,0l0.1,0l0.1,0c0,0,0-3.4,0-3.5
		c0.1,0,0.3,0,0.3,0l0.3,0c0,0,0.1,0,0.1,0l0.2,0l0.3-0.1L263,209.2L263,209.2z"/>
	<path display="inline" fill="#231F20" d="M266.6,208.3l-0.1,0l-0.2,0.1l-0.1,0v3.7c0,0.3,0,0.5-0.1,0.7c0,0.2-0.1,0.3-0.2,0.4
		c-0.1,0.1-0.2,0.2-0.3,0.2c-0.1,0-0.2,0-0.3,0c-0.1,0-0.2-0.1-0.3-0.1c-0.1-0.1-0.2-0.2-0.3-0.3c-0.1-0.1-0.2-0.3-0.2-0.4
		c-0.1-0.2-0.1-0.4-0.1-0.6v-3.1l-0.2,0l-0.1,0l-0.1,0l-0.1,0v3.1c0,0.2,0,0.5,0.1,0.7c0.1,0.2,0.1,0.4,0.3,0.6
		c0.1,0.2,0.3,0.3,0.4,0.5c0.2,0.2,0.4,0.3,0.6,0.3c0.2,0.1,0.5,0.1,0.7,0c0.2-0.1,0.3-0.2,0.5-0.4c0.1-0.2,0.2-0.4,0.3-0.7
		c0.1-0.3,0.1-0.6,0.1-0.9L266.6,208.3L266.6,208.3z"/>
	<path display="inline" fill="#231F20" d="M268.9,207.4c-0.2,0.1-0.4,0.2-0.6,0.4c-0.2,0.2-0.3,0.4-0.4,0.6
		c-0.1,0.2-0.2,0.5-0.2,0.7c0,0.3-0.1,0.5-0.1,0.8c0,0.3,0,0.5,0.1,0.7c0.1,0.2,0.1,0.3,0.2,0.5c0.1,0.1,0.2,0.2,0.3,0.3
		c0.1,0.1,0.2,0.1,0.2,0.1l0.2,0.1c0,0,0.1,0.1,0.1,0.1l0.1,0l0.2,0.1c0,0,0.1,0.1,0.1,0.1l0.1,0c0.1,0.1,0.3,0.2,0.4,0.2
		c0.1,0.1,0.2,0.2,0.2,0.3c0.1,0.1,0.1,0.2,0.1,0.4c0,0.2,0,0.4,0,0.6c0,0.3,0,0.5-0.1,0.7c0,0.1-0.1,0.3-0.2,0.3
		c-0.1,0.1-0.2,0.1-0.3,0.1c-0.1,0-0.2,0-0.3,0c-0.1,0-0.2-0.1-0.3-0.2c-0.1-0.1-0.2-0.2-0.3-0.3c-0.1-0.2-0.2-0.3-0.2-0.5
		c-0.1-0.2-0.1-0.5-0.1-0.8v0l-0.2,0l-0.1,0l-0.1,0l-0.2,0l0,0.5c0,0.1,0,0.3,0.1,0.5c0,0.2,0.1,0.3,0.1,0.4
		c0.1,0.2,0.1,0.3,0.2,0.5l0.1,0.2c0.1,0.1,0.1,0.2,0.2,0.3c0.1,0.1,0.2,0.2,0.3,0.3c0.1,0.1,0.3,0.2,0.4,0.2
		c0.2,0.1,0.3,0.1,0.5,0.1c0.2,0,0.3-0.1,0.5-0.3c0.2-0.1,0.3-0.4,0.4-0.7c0.1-0.3,0.1-0.7,0.1-1.2c0-0.3,0-0.6-0.1-0.9
		c0-0.3-0.1-0.5-0.2-0.7c-0.1-0.2-0.2-0.3-0.3-0.5c-0.1-0.1-0.2-0.2-0.3-0.3c0,0-0.1-0.1-0.1-0.1l-0.1-0.1c0,0-0.1-0.1-0.1-0.1
		l-0.1-0.1c0,0-0.1-0.1-0.1-0.1l-0.1-0.1l-0.3-0.1l-0.2-0.1c0,0-0.1-0.1-0.1-0.1c0-0.1-0.1-0.1-0.1-0.2c0-0.1,0-0.2,0-0.4
		c0-0.2,0-0.5,0.1-0.7c0-0.2,0.1-0.3,0.2-0.4c0.1-0.1,0.2-0.2,0.3-0.2c0,0,0.2-0.1,0.2-0.1l0,0c0.1,0,0.2,0,0.3,0
		c0.1,0,0.2,0.1,0.3,0.2c0.1,0.1,0.2,0.2,0.2,0.4c0.1,0.2,0.1,0.5,0.1,0.8l0,0.1l0.2,0l0.1,0l0.1,0l0.2,0l0-0.1c0-0.2,0-0.5-0.1-0.8
		c0-0.2-0.1-0.6-0.2-0.8c-0.1-0.3-0.3-0.5-0.4-0.6C269.4,207.3,269.2,207.3,268.9,207.4z"/>
	<path display="inline" fill="#FDBD10" d="M252.6,220.4c0.1,0.3,0.2,0.6,0.2,0.8c0.6-0.5,2.4-0.8,4.2-0.8c1.8,0,3.6,0.3,4.2,0.8
		c0.1-0.2,0.1-0.5,0.2-0.8c-1.2-0.4-2.8-0.7-4.5-0.7C255.4,219.7,253.9,220,252.6,220.4z"/>
	<path display="inline" fill="#231F20" d="M255.1,226.2c0,0,0.4,0.4,0.5,0.4c0.1,0.1,0.3,0.1,0.4,0.2c0.7,0.2,1.8,0.6,2.1,1.1
		c0.4,0.6,0.5,2.4,0.6,3.4c0,0.3,0.1,0.8,0.3,0.9c0.2,0.2,0.5,0,0.4-0.3c-0.1-0.8-0.7-2.2,0.1-2.5c0.2-0.1,0.5,0,0.6,0.1
		c0.3,0.2,0.3,0.6,0.2,1c0,0.2,0,0.3,0.1,0.4c0,0-0.1,0,0,0c-0.2-0.1-0.5-0.3-0.5-0.5c-0.1-0.2,0.1-0.4,0-0.6c0,0-0.1,0-0.1,0
		c-0.3,0.1,0,0.9,0.1,1.1c0.2,0.7,0.4,1.7,0,2.3c-0.1,0.1-0.2,0.1-0.3,0.2c-0.1,0.1-0.1,0.4-0.2,0.5c-0.2,0.2-0.5,0.4-0.6,0.7
		c-0.1,0.4,0.2,0.4,0.1,0.6c0,0.1-1,0.4-0.9,1c0,0.1,0.1,0.1,0.1,0.2c0.1,0.2-0.4,0.5-0.6,0.3c-0.3-0.1-0.1-0.9,0-1.1
		c0.1-0.1,0.2-0.1,0.3-0.2c0-0.2,0.1-0.5,0-0.7c0-0.2-0.3-0.3-0.3-0.5c-0.1-0.2-0.3-0.8-0.6-0.7c-0.3,0.1-0.4,0.3-0.9,0.3
		c-0.1,0-0.3,0-0.5-0.1c-0.1,0-0.3-0.2-0.5-0.1c-0.3,0.1,0,0.6-0.5,0.5c-0.1,0-0.3-0.1-0.3-0.2c-0.1-0.1,0-0.3,0-0.4
		c0.1-0.5,0.9-0.3,1.4-0.4c0.4-0.1,0.1-0.5,0.3-0.9c0.1-0.2,0.2-0.4,0.4-0.6c0.1-0.1,0.3-0.3,0.2-0.5l0,0c-0.2-0.2-0.4-0.4-0.6-0.7
		c-0.1-0.1-0.3-0.2-0.5-0.3c-0.1-0.1-0.1-0.1-0.2-0.1c-0.1,0.3,0.1,0.4,0.1,0.6c0,0.1,0,0.2,0,0.3c0,0.1-0.1,0.1-0.1,0.2
		c-0.2,0.1-0.3,0-0.4-0.1c-0.4-0.5,0.1-0.9-0.1-1.4c-0.2-0.4-0.4,0.3-0.7,0.3c-0.5,0.1-0.3-0.4-0.2-0.6c0-0.1,0.1-0.3,0.2-0.3
		c0.2-0.1,0.1,0.1,0.6,0c0.1,0,0.3-0.6,0.6-0.1c0.2,0.2,0.3,0.5,0.6,0.1c0,0,0.1-0.2,0.1-0.3c0,0-0.1,0-0.1,0
		c-0.2,0.1-0.4,0.1-0.5,0c-0.4-0.4,0.2-0.9,0.1-1.4c0-0.1-0.1-0.2-0.2-0.3c-0.1-0.2-0.3-0.8-0.3-0.8s0.3,0.3,0.5,0.2
		C255.4,226.7,255.1,226.2,255.1,226.2"/>
	<path display="inline" fill="#231F20" d="M249.1,176.5c0,0-1.3,4-1.4,4.2c-0.2,0-4.8,0-4.8,0s3.7,2.7,3.9,2.8
		c-0.1,0.2-1.5,4.6-1.5,4.6s3.7-2.7,3.9-2.8c0.2,0.1,3.9,2.8,3.9,2.8s-1.4-4.4-1.5-4.6c0.2-0.1,3.9-2.8,3.9-2.8s-4.6,0-4.8,0
		c-0.1-0.2-1.5-4.6-1.5-4.6L249.1,176.5z"/>
	<path display="inline" fill="#231F20" d="M264.8,176.5c0,0-1.3,4-1.4,4.2c-0.2,0-4.8,0-4.8,0s3.7,2.7,3.9,2.8
		c-0.1,0.2-1.5,4.6-1.5,4.6s3.7-2.7,3.9-2.8c0.2,0.1,3.9,2.8,3.9,2.8s-1.4-4.4-1.5-4.6c0.2-0.1,3.9-2.8,3.9-2.8s-4.6,0-4.8,0
		c-0.1-0.2-1.5-4.6-1.5-4.6L264.8,176.5z"/>
	<path display="inline" fill="#FDBD10" d="M247.9,180.9h0.1c0,0,1.1-3.2,1.3-3.9c0.2,0.7,1.3,3.9,1.3,3.9s3.4,0,4.1,0
		c-0.6,0.4-3.4,2.4-3.4,2.4s1.1,3.2,1.3,3.9c-0.6-0.4-3.3-2.4-3.3-2.4s-2.8,2-3.3,2.4c0.2-0.7,1.3-3.9,1.3-3.9s-2.8-2-3.3-2.4
		C244.6,180.9,247.9,180.9,247.9,180.9z"/>
	<path display="inline" fill="#FDBD10" d="M263.5,180.9h0.1c0,0,1.1-3.3,1.3-3.9c0.2,0.7,1.3,3.9,1.3,3.9s3.4,0,4.1,0
		c-0.6,0.4-3.4,2.4-3.4,2.4s1.1,3.2,1.3,3.9c-0.6-0.4-3.3-2.4-3.3-2.4s-2.8,2-3.4,2.4c0.2-0.7,1.3-3.9,1.3-3.9s-2.8-2-3.3-2.4
		C260.2,180.9,263.5,180.9,263.5,180.9z"/>
</g>
</svg>
